<svg width="24" height="25" viewBox="0 0 24 25" fill="none" xmlns="http://www.w3.org/2000/svg">
<rect x="0.000488281" y="0.5" width="24" height="24" rx="8" fill="#ECF028" fill-opacity="0.2"/>
<g clip-path="url(#clip0_182_780)">
<path d="M13.6167 19.0731C13.4848 19.106 13.3502 19.1352 13.2167 19.1598C12.8677 19.2247 12.6369 19.5604 12.7015 19.9097C12.7334 20.0816 12.831 20.2247 12.9635 20.3182C13.1001 20.4143 13.2739 20.4577 13.451 20.4248C13.61 20.3952 13.7703 20.3605 13.9275 20.3213C14.2722 20.2355 14.4822 19.8864 14.3962 19.5419C14.3104 19.1971 13.9616 18.9873 13.6167 19.0731Z" fill="#ECF028"/>
<path d="M18.3732 10.4517C18.4182 10.5875 18.5043 10.6984 18.6129 10.7749C18.774 10.8884 18.9848 10.9266 19.186 10.8601C19.5233 10.7481 19.706 10.3844 19.5944 10.0473C19.5436 9.89364 19.4872 9.73949 19.4271 9.5894C19.2952 9.25956 18.921 9.09897 18.591 9.23091C18.2613 9.36277 18.1007 9.73701 18.2327 10.067C18.2832 10.1931 18.3305 10.3226 18.3732 10.4517Z" fill="#ECF028"/>
<path d="M15.7067 18.1548C15.5932 18.2297 15.4761 18.3022 15.3582 18.3701C15.0504 18.5477 14.945 18.9411 15.1224 19.2487C15.1706 19.3324 15.2348 19.4008 15.3087 19.4531C15.5071 19.5927 15.7766 19.6136 16.0009 19.4844C16.1412 19.4035 16.2807 19.3174 16.4158 19.2281C16.7121 19.0323 16.7936 18.6333 16.5978 18.3369C16.402 18.0403 16.0031 17.9589 15.7067 18.1548Z" fill="#ECF028"/>
<path d="M19.9944 12.2482C19.9804 11.8932 19.6814 11.6169 19.3263 11.6307C18.9716 11.6447 18.6951 11.9439 18.709 12.2987C18.7143 12.4344 18.7157 12.5721 18.7126 12.7077C18.7076 12.9303 18.8165 13.1288 18.9857 13.248C19.0865 13.319 19.2088 13.362 19.3415 13.365C19.6965 13.3729 19.9907 13.0913 19.9986 12.7361C20.0021 12.5742 20.0008 12.4101 19.9944 12.2482Z" fill="#ECF028"/>
<path d="M18.2682 16.4627C17.9835 16.2491 17.5807 16.3071 17.3675 16.5913C17.2859 16.7001 17.1999 16.8076 17.1119 16.911C16.8818 17.1814 16.9143 17.5874 17.1846 17.8177C17.2 17.8308 17.2156 17.8428 17.2318 17.8541C17.5005 18.0435 17.874 18 18.0913 17.745C18.1965 17.6215 18.299 17.4931 18.3965 17.3632C18.6098 17.079 18.5521 16.676 18.2682 16.4627Z" fill="#ECF028"/>
<path d="M19.2137 14.1376C18.8748 14.0313 18.5138 14.22 18.4076 14.559C18.3669 14.6884 18.3219 14.8186 18.2732 14.946C18.1664 15.2265 18.2688 15.5352 18.5033 15.7006C18.5464 15.7308 18.5938 15.7564 18.6452 15.7759C18.9771 15.9025 19.3487 15.736 19.4752 15.404C19.533 15.2525 19.5866 15.0977 19.635 14.9438C19.7411 14.6047 19.5526 14.2439 19.2137 14.1376Z" fill="#ECF028"/>
<path d="M10.8104 19.1656C10.2354 19.0623 9.68371 18.8865 9.16061 18.6413C9.15442 18.6381 9.14888 18.6344 9.14238 18.6314C9.01912 18.5734 8.89606 18.5112 8.77678 18.4463C8.77637 18.4458 8.77561 18.4455 8.77495 18.4452C8.55611 18.3247 8.34252 18.1914 8.13502 18.0453C5.10933 15.9139 4.38183 11.7183 6.51336 8.69264C6.97685 8.03496 7.53774 7.48628 8.16305 7.0514C8.17076 7.04604 8.17846 7.0407 8.1861 7.0353C10.3896 5.51702 13.3816 5.4147 15.7214 6.97487L15.2189 7.70096C15.0792 7.90306 15.1651 8.05033 15.4097 8.02832L17.5926 7.8329C17.8374 7.81088 17.9839 7.59905 17.918 7.36256L17.3319 5.25058C17.2662 5.01381 17.0982 4.98547 16.9584 5.18753L16.4547 5.91534C14.7376 4.7627 12.6781 4.32318 10.634 4.67764C10.4281 4.71328 10.2251 4.75689 10.0249 4.80765C10.0234 4.80793 10.0221 4.8081 10.0209 4.80837C10.0132 4.81027 10.0053 4.81278 9.99779 4.81487C8.23511 5.26753 6.69719 6.2956 5.59979 7.76242C5.59054 7.7734 5.58101 7.78413 5.57227 7.79606C5.53578 7.84521 5.49956 7.89549 5.4641 7.94578C5.40612 8.02819 5.34895 8.11266 5.29427 8.19713C5.28742 8.20731 5.28219 8.21766 5.27621 8.22794C4.37062 9.63125 3.93382 11.2536 4.00873 12.9053C4.0089 12.9107 4.00859 12.9162 4.00873 12.9217C4.01599 13.0831 4.02878 13.2467 4.04615 13.4077C4.04708 13.4181 4.04938 13.4279 4.05114 13.4383C4.06909 13.6002 4.09162 13.7625 4.11986 13.9248C4.40684 15.5804 5.18785 17.0703 6.35817 18.2295C6.36089 18.2322 6.36371 18.2352 6.36646 18.238C6.36742 18.2391 6.36849 18.2396 6.36942 18.2406C6.68385 18.5508 7.02586 18.8376 7.39411 19.097C8.35783 19.776 9.43095 20.2249 10.5834 20.4317C10.9331 20.4946 11.2671 20.2618 11.3299 19.9123C11.3926 19.5625 11.16 19.2282 10.8104 19.1656Z" fill="#ECF028"/>
<path d="M11.6058 7.36151C11.3182 7.36151 11.0852 7.5947 11.0852 7.88192V13.0667L15.8271 15.518C15.9034 15.5575 15.9851 15.5761 16.0655 15.5761C16.2539 15.5761 16.4358 15.4735 16.5283 15.2946C16.6602 15.0392 16.5604 14.7254 16.3049 14.5935L12.1259 12.4329V7.88192C12.1258 7.5947 11.8931 7.36151 11.6058 7.36151Z" fill="#ECF028"/>
</g>
<defs>
<clipPath id="clip0_182_780">
<rect width="16" height="16" fill="white" transform="translate(4.00049 4.5)"/>
</clipPath>
</defs>
</svg>
