<svg width="24" height="25" viewBox="0 0 24 25" fill="none" xmlns="http://www.w3.org/2000/svg">
<g clip-path="url(#clip0_95_4670)">
<path d="M21.635 4.74981C21.5057 3.08032 20.1069 1.7612 18.4048 1.7612H3.24103C1.45392 1.7612 0 3.21512 0 5.00223V19.9977C0 21.7849 1.45392 23.2388 3.24103 23.2388H20.759C22.5461 23.2388 24 21.7849 24 19.9977V7.86953C24 6.38603 22.9977 5.13306 21.635 4.74981ZM3.24103 3.27526H18.4049C19.2288 3.27526 19.9193 3.85538 20.0907 4.62854H3.24103C2.6065 4.62854 2.01445 4.81255 1.51406 5.12899V5.00223C1.51406 4.04998 2.28878 3.27526 3.24103 3.27526ZM20.759 21.7247H3.24103C2.28878 21.7247 1.51406 20.95 1.51406 19.9977V7.86953C1.51406 6.91728 2.28878 6.14255 3.24103 6.14255H20.759C21.7113 6.14255 22.486 6.91728 22.486 7.86953V10.5115H17.6587C15.7458 10.5115 14.1895 12.0678 14.1895 13.9807C14.1895 15.8936 15.7458 17.4499 17.6587 17.4499H22.4859V19.9977C22.4859 20.95 21.7112 21.7247 20.759 21.7247ZM22.4859 15.9359H17.6587C16.5806 15.9359 15.7036 15.0588 15.7036 13.9807C15.7036 12.9026 16.5806 12.0255 17.6587 12.0255H22.4859V15.9359Z" fill="black"/>
<path d="M17.9395 14.8263C18.3748 14.8263 18.7277 14.4734 18.7277 14.0381C18.7277 13.6028 18.3748 13.25 17.9395 13.25C17.5042 13.25 17.1514 13.6028 17.1514 14.0381C17.1514 14.4734 17.5042 14.8263 17.9395 14.8263Z" fill="black"/>
</g>
<defs>
<clipPath id="clip0_95_4670">
<rect width="24" height="24" fill="white" transform="translate(0 0.5)"/>
</clipPath>
</defs>
</svg>
