<svg width="24" height="24" viewBox="0 0 24 24" fill="none" xmlns="http://www.w3.org/2000/svg">
    <g clip-path="url(#clip0_1732_11927)">
        <circle cx="12.0425" cy="11.9956" r="7.85498" fill="white"/>
        <path d="M9.60008 0.319965C5.92008 1.08797 2.27208 4.12796 0.928082 7.61596C-0.063918 10.144 -0.063918 13.856 0.928082 16.384C1.92008 18.944 4.32008 21.472 6.97608 22.784C8.89608 23.744 9.37608 23.84 12.0001 23.84C14.4321 23.84 15.1681 23.712 16.7041 22.976C24.5121 19.328 26.3361 9.63196 20.3521 3.64796C18.9441 2.27197 17.8881 1.50397 16.6081 1.02396C14.4321 0.223965 11.5521 -0.0640354 9.60008 0.319965ZM15.6801 6.01596C18.9121 7.99996 20.0321 12.256 18.1121 15.488C17.1201 17.216 15.4881 18.368 13.3761 18.88C8.70408 20.064 3.93608 15.264 5.12008 10.624C5.82408 7.77596 7.36008 6.11197 10.0161 5.24796C11.8081 4.67196 13.9201 4.95996 15.6801 6.01596Z" fill="#2851EA"/>
        <path d="M9.92017 12V14.08H12.0002H14.0802V12V9.91996H12.0002H9.92017V12Z" fill="#2851EA"/>
    </g>
    <defs>
        <clipPath id="clip0_1732_11927">
            <rect width="24" height="24" fill="white"/>
        </clipPath>
    </defs>
</svg>
