<svg width="36" height="32" viewBox="0 0 36 32" fill="none" xmlns="http://www.w3.org/2000/svg">
<path d="M30.3676 3.09766L19.4641 11.1632L21.4971 6.40853L30.3676 3.09766Z" fill="#E17726" stroke="#E17726" stroke-width="0.30303" stroke-linecap="round" stroke-linejoin="round"/>
<path d="M5.22519 3.09766L16.0291 11.2296L14.0957 6.41683L5.22519 3.09766ZM26.443 21.7929L23.5387 26.224L29.7539 27.9334L31.5296 21.8925L26.443 21.7929ZM4.07178 21.8925L5.83924 27.9334L12.0378 26.224L9.15011 21.7929L4.07178 21.8925Z" fill="#E27625" stroke="#E27625" stroke-width="0.30303" stroke-linecap="round" stroke-linejoin="round"/>
<path d="M11.706 14.3088L9.97998 16.9143L16.1205 17.1964L15.9213 10.583L11.706 14.317V14.3088ZM23.8873 14.317L19.6056 10.5L19.4645 17.1964L25.605 16.9143L23.8873 14.317ZM12.0379 26.2246L15.7636 24.4322L12.5606 21.9428L12.0379 26.2246ZM19.8379 24.4239L23.5388 26.2246L23.0409 21.9345L19.8379 24.4239Z" fill="#E27625" stroke="#E27625" stroke-width="0.30303" stroke-linecap="round" stroke-linejoin="round"/>
<path d="M23.5385 26.224L19.8377 24.4316L20.1364 26.838L20.1032 27.8587L23.5385 26.224ZM12.0376 26.224L15.4895 27.8587L15.4646 26.838L15.7634 24.4316L12.0376 26.224Z" fill="#D5BFB2" stroke="#D5BFB2" stroke-width="0.30303" stroke-linecap="round" stroke-linejoin="round"/>
<path d="M15.5475 20.3407L12.4773 19.4445L14.6514 18.4487L15.5558 20.3407H15.5475ZM20.0367 20.3407L20.9495 18.4404L23.1318 19.4362L20.0367 20.349V20.3407Z" fill="#233447" stroke="#233447" stroke-width="0.30303" stroke-linecap="round" stroke-linejoin="round"/>
<path d="M12.0368 26.2234L12.5762 21.7923L9.14917 21.8918L12.0368 26.2234ZM23.015 21.7923L23.5378 26.2234L26.4421 21.8918L23.015 21.7923ZM25.6123 16.9131L19.4718 17.1952L20.0361 20.3484L20.9488 18.4399L23.1312 19.4357L25.6123 16.9131ZM12.4766 19.444L14.6507 18.4482L15.5552 20.3401L16.1277 17.1869L9.98726 16.9131L12.4766 19.444Z" fill="#CC6228" stroke="#CC6228" stroke-width="0.30303" stroke-linecap="round" stroke-linejoin="round"/>
<path d="M9.98755 16.9131L12.5599 21.9333L12.4769 19.444L9.98755 16.9131ZM23.1315 19.444L23.0319 21.9333L25.6043 16.9131L23.1315 19.444ZM16.128 17.1952L15.5472 20.3484L16.2774 24.0659L16.4433 19.1618L16.128 17.1952ZM19.4638 17.1952L19.1651 19.1535L19.3144 24.0659L20.0363 20.3401L19.4638 17.1869V17.1952Z" fill="#E27525" stroke="#E27525" stroke-width="0.30303" stroke-linecap="round" stroke-linejoin="round"/>
<path d="M20.0365 20.3395L19.3145 24.0653L19.8373 24.4304L23.032 21.941L23.1316 19.4434L20.0365 20.3395ZM12.477 19.4434L12.56 21.9327L15.763 24.4221L16.2775 24.0653L15.5556 20.3395L12.4688 19.4434H12.477Z" fill="#F5841F" stroke="#F5841F" stroke-width="0.30303" stroke-linecap="round" stroke-linejoin="round"/>
<path d="M20.1115 27.8593L20.1364 26.8387L19.8542 26.6063H15.7385L15.4646 26.8387L15.4895 27.8593L12.0376 26.2246L13.2491 27.2204L15.697 28.9048H19.8874L22.3436 27.2121L23.5385 26.2246L20.1032 27.8593H20.1115Z" fill="#C0AC9D" stroke="#C0AC9D" stroke-width="0.30303" stroke-linecap="round" stroke-linejoin="round"/>
<path d="M19.8379 24.4242L19.3151 24.0674H16.278L15.7636 24.4325L15.4648 26.8389L15.7387 26.6065H19.8544L20.1366 26.8389L19.8379 24.4325V24.4242Z" fill="#161616" stroke="#161616" stroke-width="0.30303" stroke-linecap="round" stroke-linejoin="round"/>
<path d="M30.832 11.686L31.7448 7.24662L30.3674 3.09766L19.829 10.8977L23.8867 14.3082L29.6122 15.976L30.8735 14.5073L30.3259 14.109L31.1971 13.3124L30.5333 12.7979L31.4046 12.1341L30.8237 11.686H30.832ZM3.84717 7.23832L4.77654 11.686L4.17909 12.1258L5.06696 12.7896L4.40313 13.3124L5.26611 14.109L4.71845 14.5073L5.97974 15.976L11.7053 14.3165L15.763 10.8894L5.22462 3.09766L3.84717 7.23832Z" fill="#763E1A" stroke="#763E1A" stroke-width="0.30303" stroke-linecap="round" stroke-linejoin="round"/>
<path d="M29.6128 15.9767L23.8872 14.3171L25.6132 16.9144L23.0408 21.9346L26.443 21.8931H31.5296L29.6128 15.9767ZM11.7059 14.3088L5.9803 15.9767L4.07178 21.8931H9.15841L12.5606 21.9346L9.9882 16.9144L11.7142 14.3088H11.7059ZM19.4644 17.1965L19.8378 10.8901L21.4974 6.40918H14.0957L15.7553 10.8901L16.1287 17.1965L16.2697 19.1714V24.0672H19.3151L19.3317 19.1714L19.4644 17.1965Z" fill="#F5841F" stroke="#F5841F" stroke-width="0.30303" stroke-linecap="round" stroke-linejoin="round"/>
</svg>
