<svg width="40" height="40" viewBox="0 0 40 40" fill="none" xmlns="http://www.w3.org/2000/svg">
<rect width="40" height="40" rx="20" fill="white" fill-opacity="0.1"/>
<path d="M13.2958 24.4361C18.5103 26.4711 22.9478 26.8675 27.9764 23.7C27.9395 23.7553 26.9448 25.2289 24.329 25.9842C24.8816 26.7395 25.6369 27.6052 25.6369 27.6052C27.3133 27.6052 28.9527 27.1263 30.3711 26.2052C31.4764 25.4684 32.1027 24.1973 31.9737 22.871C31.7527 20.6052 31.2184 18.3947 30.3895 16.2763C29.3395 13.5132 26.8159 11.5974 23.8869 11.321C23.629 11.3026 23.4448 11.3026 23.3343 11.3026L23.0396 11.5973C26.4106 12.5552 28.087 14.0473 28.1238 14.1026C22.9474 11.4868 16.8317 11.45 11.6185 13.9921C11.6185 13.9921 13.2764 12.3526 16.9422 11.4868L16.7211 11.2657C16.3343 11.2657 15.9658 11.3026 15.579 11.3578C12.8711 11.8184 10.6054 13.6789 9.62902 16.2394C8.78164 18.4499 8.22902 20.771 8.0264 23.1289C7.91588 24.3815 8.50535 25.6157 9.53692 26.3342C10.9001 27.2368 12.5211 27.7157 14.1606 27.7157C14.1606 27.7157 14.8237 26.8499 15.4869 26.0763C13.0001 25.3394 11.9869 23.8657 11.9685 23.8105L12.4365 24.0494C12.7163 24.1924 13.0031 24.3219 13.2958 24.4361ZM16.1869 22.8342C14.9895 22.7973 14.0501 21.7842 14.0869 20.5684C14.1238 19.4263 15.0448 18.5052 16.1869 18.4684C17.3843 18.5052 18.3238 19.5184 18.2869 20.7342C18.2316 21.8763 17.329 22.7974 16.1869 22.8342ZM23.7027 22.8342C22.5053 22.7973 21.5658 21.7842 21.6027 20.5684C21.6395 19.4263 22.5606 18.5052 23.7027 18.4684C24.9001 18.5052 25.8395 19.5184 25.8027 20.7342C25.7659 21.8763 24.8448 22.7974 23.7027 22.8342Z" fill="white"/>
</svg>
