<svg width="37" height="37" viewBox="0 0 37 37" fill="none" xmlns="http://www.w3.org/2000/svg">
<rect x="0.0361328" y="0.749512" width="36" height="36" rx="18" fill="#5A6865"/>
<path d="M19.5219 18.7946C19.5219 22.1331 16.8388 24.8395 13.5291 24.8395C10.2195 24.8395 7.53613 22.1325 7.53613 18.7946C7.53613 15.4567 10.2193 12.7495 13.5291 12.7495C16.839 12.7495 19.5219 15.4561 19.5219 18.7946Z" fill="#131D20"/>
<path d="M26.096 18.7945C26.096 21.937 24.7544 24.4855 23.0995 24.4855C21.4446 24.4855 20.103 21.937 20.103 18.7945C20.103 15.652 21.4444 13.1035 23.0993 13.1035C24.7542 13.1035 26.0958 15.6512 26.0958 18.7945" fill="#131D20"/>
<path d="M28.7853 18.7945C28.7853 21.6094 28.3135 23.8928 27.7314 23.8928C27.1493 23.8928 26.6777 21.61 26.6777 18.7945C26.6777 15.979 27.1495 13.6963 27.7314 13.6963C28.3133 13.6963 28.7853 15.9788 28.7853 18.7945Z" fill="#131D20"/>
</svg>
