<svg width="48" height="48" viewBox="0 0 48 48" fill="none" xmlns="http://www.w3.org/2000/svg">
<rect width="48" height="48" rx="24" fill="white" fill-opacity="0.2"/>
<path d="M33.6091 34.0533L25.5675 22.3706L24.6583 21.0495L18.906 12.6925L18.4293 12H11.361L13.085 14.5052L20.7333 25.6181L21.6426 26.9378L27.788 35.8667L28.2647 36.5585H35.3331L33.6091 34.0533ZM29.1047 34.9596L22.7201 25.6832L21.8108 24.3628L14.4023 13.5987H17.5892L23.5806 22.3038L24.4898 23.6243L32.2916 34.9596H29.1047Z" fill="white"/>
<path d="M21.8111 24.3628L22.7203 25.6834L21.6426 26.9378L13.3727 36.5586H11.3334L20.7334 25.6179L21.8111 24.3628Z" fill="white"/>
<path d="M34.4821 12L25.5678 22.3708L24.4901 23.6245L23.5808 22.3038L24.6585 21.0495L30.6973 14.021L32.443 12H34.4821Z" fill="white"/>
</svg>
