<svg width="48" height="48" viewBox="0 0 48 48" fill="none" xmlns="http://www.w3.org/2000/svg">
<rect width="48" height="48" rx="24" fill="white" fill-opacity="0.2"/>
<path d="M37.9765 17.1294C37.6471 15.9059 36.6824 14.9412 35.4588 14.6118C33.2235 14 24.2824 14 24.2824 14C24.2824 14 15.3412 14 13.1059 14.5882C11.9059 14.9176 10.9176 15.9059 10.5882 17.1294C10 19.3647 10 24 10 24C10 24 10 28.6588 10.5882 30.8706C10.9176 32.0941 11.8824 33.0588 13.1059 33.3882C15.3647 34 24.2824 34 24.2824 34C24.2824 34 33.2235 34 35.4588 33.4118C36.6824 33.0824 37.6471 32.1176 37.9765 30.8941C38.5647 28.6588 38.5647 24.0235 38.5647 24.0235C38.5647 24.0235 38.5882 19.3647 37.9765 17.1294Z" fill="white"/>
<path d="M21.4351 28.2824L28.8704 24L21.4351 19.7177V28.2824Z" fill="#5A6865"/>
</svg>
