<svg width="49" height="48" viewBox="0 0 49 48" fill="none" xmlns="http://www.w3.org/2000/svg">
<g clip-path="url(#clip0_59_26356)">
<path d="M14.3593 27.7308C14.0331 26.6784 13.8542 25.5628 13.8542 24.4052C13.8542 22.374 14.4014 20.3534 15.4328 18.5959C16.3062 17.1331 17.4849 15.8702 18.8952 14.9231C20.1475 14.0706 21.5682 13.4813 23.0627 13.1866C26.5251 12.5762 29.0613 13.4076 30.6084 14.2495C30.7873 14.3442 30.9451 14.4389 31.0925 14.5337C31.4608 14.7547 31.745 14.9651 31.9554 15.1335C32.2396 15.3545 32.3869 15.5124 32.3869 15.5124L33.1973 15.565C33.1973 15.565 33.1657 15.5229 33.1447 15.5019C33.0394 15.3651 32.9342 15.2388 32.8184 15.1125C32.7763 15.0599 32.7342 15.0072 32.6921 14.9546C32.3975 14.6179 32.0817 14.2916 31.7555 13.9864C31.6923 13.9338 31.6292 13.8812 31.5766 13.8286C31.4187 13.6917 31.2609 13.5655 31.103 13.4392C30.6189 13.0498 30.1032 12.692 29.5665 12.3762C29.3771 12.271 29.1982 12.1658 29.0087 12.071C28.4299 11.7764 27.8195 11.5343 27.1881 11.3449C26.9776 11.2817 26.7671 11.2186 26.5461 11.166C26.1883 11.0818 25.8305 11.0186 25.4727 10.9765C25.199 10.945 24.9254 10.9239 24.6413 10.9029C24.4413 10.8924 24.2413 10.8713 24.0414 10.8713C24.0414 10.8713 24.0309 10.8713 24.0203 10.8713C23.6836 10.8713 23.3573 10.8924 23.0311 10.9239C23.0311 10.9239 23.0206 10.9239 23.01 10.9239C17.948 11.3975 13.77 15.3335 12.4124 20.5955C12.3071 20.9954 12.2229 21.3953 12.1493 21.8058C12.0124 22.6056 11.9388 23.437 11.9388 24.2789C11.9388 28.036 13.37 31.5931 15.8221 34.1083C15.8958 34.182 15.9695 34.2557 16.0431 34.3293C16.1905 34.4767 16.3589 34.6135 16.5167 34.7503V31.7404C15.538 30.5828 14.8013 29.2252 14.3488 27.7413L14.3593 27.7308Z" fill="#2B937A"/>
<path d="M22.6101 9.89257L22.1892 4.02017C19.4108 4.24118 16.7903 5.03048 14.454 6.27231L18.4637 11.187C19.7476 10.524 21.1473 10.061 22.6101 9.89257Z" fill="#2B937A"/>
<path d="M17.5586 11.6922L13.549 6.77747C11.5704 7.96668 9.81293 9.47161 8.3501 11.2396L13.8121 15.1861C14.8434 13.7759 16.1168 12.5867 17.5586 11.6922Z" fill="#2B937A"/>
<path d="M13.2438 16.0281L7.72919 12.0289C6.21373 14.0706 5.06661 16.4174 4.41412 18.9537L11.3705 20.4376C11.7704 18.838 12.4018 17.3541 13.2438 16.0281Z" fill="#2B937A"/>
<path d="M11.3074 28.1307L11.139 27.3308C11.139 27.3308 11.1074 27.3414 11.0864 27.3519L4.2247 28.2464V28.2885C4.84562 31.13 6.0664 33.74 7.73972 35.9921L13.0859 32.2877C12.2966 31.0142 11.6862 29.6251 11.3179 28.1307H11.3074Z" fill="#2B937A"/>
<path d="M30.9557 15.6492C29.335 14.5968 27.388 13.9864 25.2938 13.9864C24.8097 13.9864 24.3256 14.018 23.8415 14.0811C22.2839 14.3021 20.7684 14.881 19.474 15.765C18.1795 16.6279 17.1061 17.7856 16.3168 19.1116C15.3802 20.7007 14.875 22.5424 14.875 24.4052C14.875 25.2576 14.9802 26.0785 15.1697 26.8783C16.7272 26.0259 18.0427 24.8156 19.3161 23.5001C20.4001 22.3846 21.4525 21.1954 22.6312 20.1009C22.989 19.7536 23.3679 19.4379 23.7573 19.1221C24.9465 18.175 26.2725 17.312 27.6932 16.67C28.7246 16.207 29.8191 15.8492 30.9346 15.6387L30.9557 15.6492Z" fill="#2B937A"/>
<path d="M16.422 36.0553C15.4433 35.287 14.5908 34.3714 13.8436 33.3611C13.7805 33.2769 13.7068 33.2138 13.6437 33.1296L8.3501 36.7919C8.75001 37.2866 9.18149 37.7496 9.63403 38.2021C11.581 40.1386 13.9173 41.6751 16.5167 42.6959V36.1184C16.5167 36.1184 16.4536 36.0658 16.422 36.0342L16.401 36.0553H16.422Z" fill="#2B937A"/>
<path d="M24.0309 0C10.7811 0 0.0361328 10.745 0.0361328 23.9947C0.0361328 37.2445 10.7811 47.9895 24.0309 47.9895C37.2806 47.9895 48.0256 37.2445 48.0256 23.9947C48.0256 10.745 37.2911 0 24.0309 0ZM26.7776 44.8744C26.2935 44.9375 25.7989 45.0007 25.2938 45.0322C25.0622 45.0533 24.8412 45.0638 24.6202 45.0638C24.3887 45.0638 24.1677 45.0848 23.9362 45.0848H23.8414C23.7678 45.0848 23.6941 45.0848 23.6099 45.0848C23.2731 45.0848 22.9364 45.0638 22.5996 45.0428C22.326 45.0217 22.0524 45.0112 21.7787 44.9796C20.0949 44.8217 18.4742 44.4639 16.9377 43.9377C16.8956 43.9377 16.8535 43.9167 16.8114 43.8956C13.0122 42.5591 9.71822 40.1596 7.27665 37.0656L7.20298 36.9814V36.9498C4.42464 33.3822 2.76185 28.8989 2.76185 24.0158C2.76185 22.3951 2.95128 20.8165 3.29857 19.301V19.2484C3.29857 19.2484 3.31962 19.2168 3.31962 19.1853C4.02473 16.1859 5.36128 13.4286 7.19246 11.0713C7.19246 11.0713 7.19246 11.0502 7.21351 11.0397C7.23455 11.0186 7.23455 11.0186 7.2556 10.9976C8.93944 8.86121 11.0232 7.04056 13.4016 5.69349C13.4016 5.69349 13.4332 5.67244 13.4332 5.66192C14.9171 4.83052 16.5062 4.15698 18.1795 3.6834C19.3582 3.35716 20.579 3.12563 21.8208 3.02039L22.7469 2.94672C22.9679 2.92567 23.1995 2.92567 23.4205 2.91515C23.6204 2.8941 23.8204 2.8941 24.0203 2.8941C35.6704 2.8941 45.121 12.3447 45.121 23.9947C45.121 34.7187 37.1227 43.5483 26.7671 44.8744H26.7776Z" fill="#2B937A"/>
<path d="M23.5047 25.5733C23.5783 25.5102 23.652 25.4365 23.7257 25.3734C23.7783 25.3208 23.8309 25.2787 23.8835 25.226L23.8625 25.1734L22.7259 21.4269C21.8208 22.3109 20.9579 23.2686 20.0528 24.2052C18.7057 25.5944 17.2534 26.9204 15.4643 27.8676C15.8642 28.9936 16.4431 30.0355 17.1797 30.9511C18.4426 30.4354 19.495 29.604 20.4738 28.6674C21.5262 27.6571 22.4733 26.5205 23.5047 25.5733Z" fill="#2B937A"/>
<path d="M23.2311 27.2677C22.2523 28.2885 21.242 29.4462 20.0107 30.4249C19.9791 30.446 19.937 30.467 19.9055 30.4986C19.6213 30.7196 19.3267 30.9195 19.0215 31.1195C18.7478 31.2563 17.6954 31.7825 17.5481 31.8246V43.0537C19.5266 43.7167 21.6314 44.0746 23.8415 44.0746C25.6937 44.0746 27.4828 43.822 29.1876 43.3484V24.0684C28.1247 24.2473 27.1039 24.5315 26.1462 24.9524C25.1464 25.3944 24.2203 26.2469 23.2416 27.2677H23.2311Z" fill="#2B937A"/>
<path d="M24.7465 24.5736C25.0622 24.3631 25.3885 24.1736 25.7252 24.0263C27.5669 23.216 29.6191 22.8476 31.6502 22.8476C33.1552 22.8476 34.6391 23.0476 36.0493 23.4159C36.0493 23.4159 36.0598 23.4054 36.0703 23.3949C35.923 20.8902 35.1653 18.5749 33.955 16.6279C33.8287 16.5964 33.6919 16.5648 33.5867 16.5437C33.2709 16.4911 33.0605 16.4911 33.0605 16.4911H32.9868C32.9868 16.4911 32.9552 16.4911 32.9342 16.4911H32.7026C32.5974 16.4911 32.4606 16.4911 32.3027 16.4911C31.5345 16.5437 30.7662 16.6911 30.019 16.9016C29.3771 17.0805 28.7456 17.312 28.1247 17.5961C26.7881 18.2065 25.5358 19.0064 24.3992 19.9219C24.1045 20.1535 23.8309 20.3955 23.5468 20.6481L24.6202 24.1631L24.7465 24.563V24.5736ZM33.4183 17.1436C33.5446 17.1015 33.6919 17.1752 33.734 17.312L35.0811 21.7215C35.1232 21.8584 35.0495 22.0057 34.9127 22.0373C34.7864 22.0794 34.6285 22.0162 34.597 21.8689L33.2499 17.4593C33.2078 17.3225 33.2815 17.1752 33.4183 17.1436ZM30.0506 17.9119C30.0506 17.9119 30.9872 20.9743 31.1767 21.5953C31.2082 21.7321 31.1451 21.8794 31.0083 21.911C30.8715 21.9531 30.7241 21.8794 30.682 21.7426C30.3979 20.806 29.556 18.0592 29.556 18.0592C29.5139 17.9224 29.5875 17.775 29.7243 17.7435C29.8506 17.7014 30.0085 17.775 30.0401 17.9119H30.0506ZM26.4093 19.28C26.5356 19.2379 26.6934 19.3116 26.725 19.4484C26.725 19.4484 26.925 20.1114 27.1354 20.7849C27.2933 21.2901 27.4406 21.8057 27.5248 22.0583C27.5669 22.1951 27.4933 22.3425 27.3564 22.3846C27.2302 22.4161 27.0828 22.353 27.0407 22.2057C26.946 21.9005 26.8513 21.5847 26.7566 21.2795C26.6619 20.9743 26.5777 20.6902 26.504 20.4376C26.3461 19.9325 26.2409 19.5852 26.2409 19.5852C26.1988 19.4484 26.2725 19.3116 26.4093 19.2695V19.28Z" fill="#2B937A"/>
<path d="M37.7016 30.6354C37.5963 30.4354 37.4595 30.1828 37.3016 29.8882C36.9859 29.3304 36.6071 28.6358 36.3545 27.9307C36.1756 27.4571 36.0598 26.973 36.0598 26.4784V26.3837C36.0598 26.3837 36.0598 26.2784 36.0598 26.2258C36.0598 25.6154 35.9441 24.9735 35.8072 24.4052C34.4917 24.0579 33.0815 23.8684 31.6713 23.8684C31.1767 23.8684 30.6926 23.8895 30.2085 23.9421V36.7183C30.7241 36.7919 31.3451 36.8656 31.9765 36.9287C32.7868 37.0129 33.5972 37.0761 34.1655 37.0761C34.2918 37.0761 34.4075 37.0761 34.5128 37.0761C34.7443 37.0761 34.9022 37.0129 34.9758 36.9603C35.06 36.9077 35.1021 36.8656 35.1442 36.7814C35.1653 36.7288 35.1863 36.6551 35.2074 36.5709C35.2284 36.4657 35.2284 36.3289 35.2284 36.171V36.0237C35.2284 36.0237 35.2284 35.9184 35.2284 35.8132C35.2284 35.6974 35.2074 35.5501 35.2074 35.3922C35.2074 35.2765 35.2074 35.1607 35.2284 35.0449C35.2284 34.9292 35.2495 34.8134 35.2705 34.6976C35.2916 34.6135 35.3021 34.5398 35.3442 34.4451C35.3968 34.3503 35.4599 34.2767 35.5231 34.203C35.5862 34.1399 35.6494 34.0872 35.7125 34.0452C35.7967 33.9715 35.902 33.9189 35.9861 33.8768L35.902 33.6347V33.6137H34.5023C34.3654 33.6137 34.2497 33.4979 34.2497 33.3611C34.2497 33.2243 34.3654 33.1085 34.5023 33.1085H36.0072C36.0072 33.1085 36.0072 33.1085 36.0282 33.1085L36.2703 32.8349C36.2703 32.8349 36.2703 32.7717 36.2703 32.7402C36.2492 32.5613 36.2387 32.3403 36.2177 32.1614C36.1966 32.0456 36.1966 31.9404 36.1861 31.9193V31.8351C36.1861 31.7193 36.2177 31.6141 36.2598 31.5404C36.3019 31.4668 36.344 31.4247 36.3966 31.3931C36.4703 31.33 36.5229 31.3089 36.586 31.2879C36.6913 31.2458 36.7754 31.2142 36.8807 31.1931C37.0912 31.1405 37.3332 31.0879 37.5332 31.0248C37.67 30.9827 37.7963 30.9406 37.8699 30.888C37.8699 30.888 37.8699 30.8669 37.8699 30.8564C37.8384 30.7932 37.7963 30.709 37.7437 30.6038L37.7016 30.6354ZM34.7443 28.1622C34.5865 28.2675 34.4075 28.3306 34.2181 28.3727C34.0287 28.4148 33.8182 28.4464 33.6077 28.4464C33.3972 28.4464 33.2078 28.4148 33.0289 28.3727C32.85 28.3306 32.6921 28.2569 32.5553 28.1201C32.4711 28.0149 32.4817 27.857 32.5869 27.7623C32.6921 27.6781 32.85 27.6781 32.9447 27.7939C32.9447 27.8149 33.0289 27.8676 33.1552 27.8886C33.2815 27.9202 33.4499 27.9412 33.6077 27.9412C33.7656 27.9412 33.955 27.9202 34.1023 27.8886C34.2497 27.857 34.3865 27.8044 34.4496 27.7518C34.5654 27.6676 34.7233 27.6887 34.7969 27.8044C34.8811 27.9202 34.8601 28.078 34.7443 28.1622ZM34.9232 26.4468C34.9232 26.4468 34.7654 26.4047 34.5444 26.3521C34.3234 26.2995 34.0392 26.2258 33.8287 26.1732C33.6814 26.1416 33.5446 26.1101 33.492 26.0995C33.4709 26.0995 33.4604 26.0995 33.4288 26.0995C33.3236 26.0995 33.1552 26.1311 33.0289 26.1837C32.8921 26.2153 32.7763 26.2679 32.7553 26.2679C32.629 26.3205 32.4817 26.2679 32.429 26.1311C32.3764 26.0048 32.429 25.847 32.5658 25.7943C32.5658 25.7943 32.6921 25.7522 32.8605 25.6996C33.0289 25.647 33.2289 25.5944 33.4393 25.5944C33.4814 25.5944 33.5341 25.5944 33.5761 25.6154C33.6603 25.6154 33.7972 25.6575 33.955 25.6996C34.1023 25.7312 34.2813 25.7838 34.4496 25.8154C34.7864 25.8996 35.0706 25.9732 35.0706 25.9732C35.1968 26.0048 35.2916 26.1521 35.26 26.2784C35.2284 26.4152 35.0811 26.4994 34.9443 26.4679L34.9232 26.4468Z" fill="#2B937A"/>
<path d="M32.6711 5.83031L31.6503 7.65097L31.2188 8.41922L29.6507 11.2081C29.7665 11.2712 29.8717 11.3238 29.9875 11.387C30.5768 11.7132 31.1346 12.0921 31.6713 12.5131C31.8502 12.6499 32.0186 12.7867 32.187 12.934C32.6816 13.3655 33.1341 13.8286 33.5656 14.3232C33.5656 14.3337 33.5867 14.3442 33.5972 14.3548L36.0914 12.7762L37.5437 11.8606L39.0697 10.8924C37.2911 9.18747 35.4494 7.21948 32.6711 5.80927V5.83031Z" fill="#2B937A"/>
<path d="M24.0309 9.79785C24.2519 9.79785 24.4624 9.8189 24.6834 9.82942C25.378 9.87152 26.062 9.95571 26.725 10.103C26.9566 10.1557 27.1776 10.2293 27.4091 10.2925C27.8406 10.4188 28.2615 10.5661 28.6825 10.745L30.6505 7.24051L31.7029 5.36724C29.6823 4.50427 27.1881 3.9465 23.9572 3.93597C23.7257 3.93597 23.4836 3.93597 23.2416 3.9465L23.6625 9.80837C23.7888 9.80837 23.9151 9.78732 24.0414 9.78732L24.0309 9.79785Z" fill="#2B937A"/>
<path d="M5.77172 26.9836L10.9495 26.31C10.9495 26.31 10.9706 26.31 10.9811 26.31C10.9074 25.6996 10.8548 25.0787 10.8548 24.4473C10.8548 23.4264 10.9601 22.4372 11.16 21.4795C11.16 21.469 11.16 21.4479 11.16 21.4374L4.18259 19.9535C3.91949 21.269 3.77216 22.6161 3.77216 24.0158C3.77216 25.1103 3.86687 26.1732 4.03526 27.2151L4.3615 27.173L5.78224 26.9836H5.77172Z" fill="#2B937A"/>
<path d="M45.1315 24.0053C45.1315 12.3552 35.6809 2.90463 24.0309 2.90463C23.8309 2.90463 23.631 2.90463 23.431 2.92568C23.1995 2.92568 22.9785 2.92568 22.7575 2.95725L21.8313 3.03092C20.5895 3.14668 19.3687 3.37821 18.19 3.69393C16.5167 4.16751 14.9276 4.83053 13.4437 5.67245C13.4437 5.67245 13.4227 5.69349 13.4121 5.70402C11.0337 7.05109 8.94996 8.87175 7.26612 11.0081C7.24507 11.0292 7.24507 11.0292 7.22402 11.0502C7.22402 11.0502 7.22402 11.0713 7.20298 11.0818C5.3718 13.4392 4.02473 16.1965 3.33014 19.1958C3.33014 19.2168 3.30909 19.2379 3.30909 19.2589V19.3116C2.9618 20.827 2.77237 22.4056 2.77237 24.0263C2.77237 28.8989 4.43516 33.3822 7.2135 36.9603C7.2135 36.9603 7.2135 36.9814 7.2135 36.9919L7.28717 37.0761C9.72874 40.1701 13.0228 42.5801 16.8219 43.9062C16.8535 43.9272 16.9061 43.9377 16.9482 43.9483C18.4847 44.4745 20.1054 44.8323 21.7893 44.9901C22.0629 45.0217 22.3365 45.0322 22.6101 45.0533C22.9469 45.0849 23.2837 45.0849 23.6204 45.0954C23.6941 45.0954 23.7678 45.0954 23.852 45.0954H23.9467C24.1782 45.0954 24.3992 45.0954 24.6307 45.0743C24.8623 45.0743 25.0833 45.0533 25.3043 45.0428C25.8094 45.0112 26.2935 44.948 26.7882 44.8849C27.3249 44.8112 27.8511 44.7165 28.3773 44.6008C37.9436 42.6117 45.142 34.1609 45.142 24.0053H45.1315ZM34.155 37.0866C33.5867 37.0866 32.7658 37.0235 31.966 36.9393C31.3451 36.8761 30.7241 36.8025 30.1979 36.7288V23.9526C30.682 23.9106 31.1767 23.879 31.6608 23.879C33.071 23.879 34.4812 24.0684 35.7967 24.4157C35.9335 24.984 36.0493 25.6365 36.0493 26.2364C36.0493 26.289 36.0493 26.3416 36.0493 26.3942V26.4889C36.0493 26.9836 36.1756 27.4677 36.344 27.9412C36.5965 28.6464 36.9754 29.3409 37.2911 29.8987C37.449 30.1934 37.5858 30.446 37.691 30.6459C37.7436 30.7512 37.7752 30.8354 37.8173 30.8985C37.8173 30.9195 37.8173 30.9195 37.8173 30.9301C37.7437 30.9722 37.6279 31.0143 37.4806 31.0669C37.2806 31.13 37.028 31.1826 36.8281 31.2353C36.7228 31.2563 36.6386 31.2879 36.5334 31.33C36.4702 31.351 36.4176 31.3721 36.344 31.4352C36.3019 31.4668 36.2598 31.5194 36.2071 31.5826C36.1545 31.6457 36.1335 31.7615 36.1335 31.8772V31.9614C36.1335 31.9614 36.1545 32.0877 36.1651 32.2035C36.1861 32.3824 36.1966 32.6034 36.2177 32.7823C36.2177 32.8139 36.2177 32.8454 36.2177 32.877L35.9756 33.1506H35.9546H34.4496C34.3128 33.1506 34.1971 33.2664 34.1971 33.4032C34.1971 33.54 34.3128 33.6558 34.4496 33.6558H35.8493V33.6768L35.9335 33.9189C35.8493 33.961 35.7441 34.0136 35.6599 34.0873C35.5967 34.1294 35.5336 34.182 35.4705 34.2451C35.4073 34.3188 35.3442 34.3819 35.2916 34.4872C35.2495 34.5819 35.2284 34.6661 35.2179 34.7398C35.1968 34.8555 35.1863 34.9713 35.1758 35.0871C35.1758 35.2133 35.1547 35.3291 35.1547 35.4343C35.1547 35.5922 35.1547 35.7395 35.1758 35.8553C35.1758 35.9605 35.1758 36.0447 35.1758 36.0658V36.2131C35.1758 36.3605 35.1758 36.5078 35.1547 36.613C35.1337 36.6972 35.1232 36.7709 35.0916 36.8235C35.0495 36.9077 35.0179 36.9498 34.9232 37.0024C34.8495 37.055 34.6917 37.1077 34.4602 37.1182C34.3654 37.1182 34.2497 37.1182 34.1129 37.1182L34.155 37.0866ZM23.8941 25.2366C23.8414 25.2892 23.7888 25.3313 23.7362 25.3839C23.6625 25.4471 23.5889 25.5207 23.5152 25.5839C22.4838 26.531 21.5367 27.6676 20.4843 28.6779C19.5055 29.6146 18.4531 30.446 17.1903 30.9616C16.4536 30.046 15.8748 29.0042 15.4748 27.8781C17.2639 26.9415 18.7162 25.6049 20.0633 24.2157C20.9684 23.2791 21.8313 22.3214 22.7364 21.4374L23.873 25.184L23.8941 25.2366ZM15.8327 34.1083C13.3806 31.5826 11.9493 28.0254 11.9493 24.2789C11.9493 23.437 12.0335 22.6056 12.1598 21.8057C12.2335 21.3953 12.3176 20.9954 12.4229 20.5955C13.7805 15.3335 17.9585 11.3975 23.0206 10.9239C23.0206 10.9239 23.0311 10.9239 23.0416 10.9239C23.3679 10.8924 23.7046 10.8713 24.0309 10.8713C24.0309 10.8713 24.0414 10.8713 24.0519 10.8713C24.2519 10.8713 24.4518 10.8924 24.6518 10.9029C24.9359 10.9239 25.2096 10.9345 25.4832 10.9765C25.8515 11.0292 26.2093 11.0818 26.5566 11.166C26.7776 11.2186 26.9776 11.2817 27.1986 11.3449C27.83 11.5343 28.4299 11.7764 29.0192 12.071C29.2087 12.1658 29.3981 12.271 29.577 12.3762C30.1137 12.692 30.6294 13.0393 31.1135 13.4392C31.2714 13.5655 31.4292 13.6917 31.5871 13.8286C31.6502 13.8812 31.7134 13.9338 31.766 13.9864C32.0923 14.2916 32.408 14.6179 32.7027 14.9546C32.7447 15.0072 32.7868 15.0599 32.8289 15.1125C32.9342 15.2388 33.0499 15.3756 33.1552 15.5019C33.1762 15.5229 33.1973 15.544 33.2078 15.565L32.3975 15.5124C32.3975 15.5124 32.2501 15.3545 31.966 15.1335C31.7555 14.9651 31.4713 14.7547 31.103 14.5337C30.9557 14.4389 30.7873 14.3442 30.6189 14.2495C29.0719 13.4181 26.5356 12.5762 23.0732 13.1866C21.5788 13.4813 20.158 14.0706 18.9057 14.923C17.4955 15.8702 16.3062 17.1331 15.4433 18.5959C14.4119 20.3534 13.8647 22.3635 13.8647 24.4052C13.8647 25.5628 14.0436 26.6784 14.3698 27.7308C14.8224 29.2252 15.559 30.5828 16.5378 31.7404V34.7503C16.3799 34.6135 16.2115 34.4767 16.0642 34.3293C15.9905 34.2557 15.9169 34.182 15.8432 34.1083H15.8327ZM30.9557 15.6597C29.8401 15.8597 28.7561 16.2175 27.7143 16.6911C26.2935 17.333 24.9675 18.196 23.7783 19.1432C23.3889 19.4589 23.01 19.7851 22.6522 20.1219C21.4735 21.2164 20.4106 22.4161 19.3372 23.5212C18.0532 24.8367 16.7377 26.0469 15.1907 26.8994C15.0013 26.0995 14.896 25.2787 14.896 24.4262C14.896 22.5635 15.3907 20.7218 16.3378 19.1327C17.1271 17.7961 18.2111 16.6385 19.495 15.786C20.7895 14.902 22.3049 14.3232 23.8625 14.1022C24.3466 14.039 24.8307 14.0075 25.3148 14.0075C27.3985 14.0075 29.3455 14.6179 30.9767 15.6703L30.9557 15.6597ZM23.5573 20.6586C23.8414 20.4061 24.1151 20.1535 24.4097 19.9325C25.5463 19.0169 26.8092 18.2171 28.1352 17.6067C28.7561 17.3225 29.3876 17.1015 30.0296 16.9121C30.7768 16.7016 31.5345 16.5543 32.3133 16.5017C32.4816 16.5017 32.6079 16.5017 32.7132 16.5017H32.9447C32.9447 16.5017 32.9868 16.5017 32.9973 16.5017H33.071C33.071 16.5017 33.2815 16.5017 33.5972 16.5543C33.7024 16.5753 33.8392 16.6069 33.9655 16.6385C35.1863 18.5854 35.9335 20.9007 36.0809 23.4054C36.0809 23.4054 36.0703 23.4159 36.0598 23.4264C34.6601 23.0581 33.1657 22.8582 31.6608 22.8582C29.6296 22.8582 27.5775 23.2265 25.7358 24.0368C25.399 24.1842 25.0727 24.3736 24.757 24.5841L24.6307 24.1842L23.5573 20.6692V20.6586ZM39.0592 10.9134L37.5332 11.8816L36.0809 12.7972L33.5867 14.3758C33.5867 14.3758 33.5656 14.3548 33.5551 14.3442C33.1236 13.8496 32.6711 13.376 32.1764 12.9551C32.0081 12.8077 31.8397 12.6709 31.6608 12.5341C31.124 12.1131 30.5663 11.7343 29.9769 11.408C29.8717 11.3449 29.7559 11.2923 29.6402 11.2291L31.2082 8.44026L31.6397 7.67201L32.6606 5.85135C35.4284 7.26157 37.2701 9.21904 39.0592 10.9345V10.9134ZM23.9572 3.95703C27.1986 3.96756 29.6823 4.53585 31.7029 5.3883L30.6505 7.26157L28.6825 10.7661C28.272 10.5872 27.8406 10.4398 27.4091 10.3135C27.1881 10.2504 26.9565 10.1767 26.725 10.1241C26.062 9.96624 25.3779 9.88205 24.6834 9.85048C24.4624 9.83995 24.2519 9.81891 24.0309 9.81891C23.9046 9.81891 23.7783 9.83995 23.652 9.83995L23.231 3.97808C23.4731 3.97808 23.7151 3.96756 23.9467 3.96756L23.9572 3.95703ZM22.1892 4.0307L22.6101 9.9031C21.1368 10.082 19.7476 10.5345 18.4637 11.1976L14.454 6.28284C16.8009 5.03048 19.4108 4.25171 22.1892 4.0307ZM13.5595 6.78799L17.5691 11.7027C16.1273 12.6078 14.8645 13.7865 13.8226 15.1967L8.36062 11.2502C9.82345 9.48214 11.581 7.96668 13.5595 6.78799ZM7.7397 12.05L13.2543 16.0491C12.4124 17.3751 11.7809 18.8696 11.381 20.4587L4.42464 18.9748C5.07713 16.4385 6.22424 14.1022 7.7397 12.05ZM4.18259 19.964L11.16 21.4479C11.16 21.4479 11.16 21.4795 11.16 21.49C10.96 22.4477 10.8548 23.4475 10.8548 24.4578C10.8548 25.0892 10.9074 25.7102 10.9811 26.3206C10.9811 26.3206 10.96 26.3206 10.9495 26.3206L5.77171 26.9941L4.35097 27.1835L4.02473 27.2256C3.85634 26.1837 3.76163 25.1103 3.76163 24.0263C3.76163 22.6266 3.90896 21.2796 4.17206 19.964H4.18259ZM4.23521 28.3096V28.2675L11.0863 27.373C11.1074 27.373 11.1179 27.3624 11.139 27.3519L11.3073 28.1517C11.6862 29.6461 12.2861 31.0353 13.0754 32.3087L7.72918 36.0132C6.05586 33.761 4.83508 31.1511 4.22468 28.3096H4.23521ZM16.5378 42.717C13.9278 41.6961 11.602 40.1596 9.65507 38.2232C9.20254 37.7707 8.78158 37.2971 8.37114 36.813L13.6647 33.1506C13.7279 33.2348 13.8015 33.3085 13.8647 33.3822C14.6014 34.3925 15.4538 35.3081 16.4431 36.0763L16.4641 36.0553C16.4641 36.0553 16.5167 36.1079 16.5588 36.1395V42.717H16.5378ZM23.8414 44.1061C21.6419 44.1061 19.5266 43.7483 17.5481 43.0853V31.8562C17.7059 31.8141 18.7478 31.2879 19.0214 31.1511C19.3266 30.9511 19.6213 30.7512 19.9055 30.5302C19.937 30.5091 19.9791 30.4881 20.0107 30.4565C21.242 29.4778 22.2523 28.3201 23.231 27.2993C24.2098 26.2785 25.1359 25.426 26.1357 24.984C27.0934 24.563 28.1142 24.2684 29.1771 24.1V43.38C27.4722 43.8535 25.6831 44.1061 23.8309 44.1061H23.8414Z" fill="white"/>
<path d="M26.7671 21.2901C26.8618 21.5953 26.9565 21.911 27.0513 22.2162C27.0933 22.353 27.2407 22.4267 27.367 22.3951C27.5038 22.353 27.5775 22.2057 27.5354 22.0689C27.4617 21.8058 27.3038 21.3006 27.146 20.7955C26.9355 20.1219 26.7355 19.4589 26.7355 19.4589C26.704 19.3326 26.5461 19.2484 26.4198 19.2905C26.2935 19.3326 26.2093 19.4694 26.2514 19.6062C26.2514 19.6062 26.3567 19.9535 26.5145 20.4587C26.5882 20.7113 26.6724 20.9954 26.7671 21.3006V21.2901Z" fill="white"/>
<path d="M34.9232 22.0373C35.06 22.0057 35.1337 21.8584 35.0916 21.7216L33.7445 17.312C33.7024 17.1752 33.5551 17.1015 33.4288 17.1436C33.3025 17.1752 33.2183 17.3225 33.2604 17.4593L34.6075 21.8689C34.6391 22.0057 34.7864 22.0794 34.9232 22.0373Z" fill="white"/>
<path d="M31.0188 21.911C31.1451 21.8794 31.2188 21.7321 31.1872 21.5953C30.9978 20.9743 30.0611 17.9119 30.0611 17.9119C30.0296 17.775 29.8717 17.7014 29.7454 17.7435C29.6191 17.775 29.5349 17.9224 29.577 18.0592C29.577 18.0592 30.4189 20.806 30.7031 21.7426C30.7452 21.8689 30.8925 21.9531 31.0293 21.911H31.0188Z" fill="white"/>
<path d="M34.7443 28.1622C34.8601 28.078 34.8811 27.9202 34.7969 27.8044C34.7232 27.6887 34.5654 27.6676 34.4496 27.7518C34.3865 27.7939 34.2602 27.8465 34.1023 27.8886C33.955 27.9202 33.7761 27.9412 33.6077 27.9412C33.4393 27.9412 33.2709 27.9202 33.1552 27.8886C33.0289 27.857 32.9447 27.8044 32.9447 27.7939C32.85 27.6887 32.6921 27.6781 32.5869 27.7623C32.4816 27.857 32.4711 28.0149 32.5553 28.1201C32.6921 28.257 32.85 28.3306 33.0289 28.3727C33.2078 28.4148 33.4077 28.4464 33.6077 28.4464C33.8077 28.4464 34.0181 28.4148 34.2181 28.3727C34.4075 28.3306 34.5864 28.2675 34.7443 28.1622Z" fill="white"/>
<path d="M32.7447 26.2574C32.7447 26.2574 32.871 26.2048 33.0184 26.1732C33.1447 26.1311 33.313 26.089 33.4183 26.089C33.4499 26.089 33.4604 26.089 33.4814 26.089C33.5446 26.089 33.6709 26.1206 33.8182 26.1627C34.0392 26.2153 34.3233 26.289 34.5338 26.3416C34.7548 26.3942 34.9127 26.4363 34.9127 26.4363C35.0495 26.4679 35.1968 26.3942 35.2284 26.2469C35.26 26.1206 35.1758 25.9732 35.039 25.9417C35.039 25.9417 34.7443 25.868 34.4181 25.7838C34.2497 25.7522 34.0813 25.6996 33.9234 25.668C33.7656 25.6365 33.6288 25.5944 33.5446 25.5839C33.5025 25.5839 33.4499 25.5628 33.4078 25.5628C33.1973 25.5628 32.9973 25.6154 32.8289 25.668C32.6606 25.7207 32.5343 25.7628 32.5343 25.7628C32.408 25.8154 32.3448 25.9627 32.3975 26.0995C32.4501 26.2363 32.5974 26.289 32.7237 26.2363L32.7447 26.2574Z" fill="white"/>
</g>
<defs>
<clipPath id="clip0_59_26356">
<rect width="48" height="48" fill="white" transform="translate(0.0361328)"/>
</clipPath>
</defs>
</svg>
