<svg width="56" height="56" viewBox="0 0 56 56" fill="none" xmlns="http://www.w3.org/2000/svg">
<g clip-path="url(#clip0_149_33067)">
<path d="M0 55.9933L13.4109 16.1675L39.8982 42.5558L0 55.9933Z" fill="#FFEA84"/>
<path d="M0 55.9934L39.8982 42.5559L26.6431 29.3503L0 55.9934Z" fill="#FFDC40"/>
<path d="M37.4147 42.9723C35.973 42.9723 34.3327 42.6246 32.5471 41.9258C28.9716 40.5267 25.091 37.8445 21.6199 34.3733C18.1487 30.9021 15.4666 27.0214 14.0675 23.4461C12.4963 19.4312 12.6999 16.1513 14.6405 14.2108C16.5811 12.2702 19.8609 12.0667 23.8758 13.6378C27.4513 15.0368 31.3319 17.719 34.8032 21.1902C38.2744 24.6615 40.9564 28.5421 42.3555 32.1174C43.9267 36.1324 43.7231 39.4122 41.7825 41.3527C40.705 42.4303 39.2146 42.9723 37.4147 42.9723Z" fill="#FFDC40"/>
<path d="M34.8032 21.1903L21.6199 34.3735C25.0909 37.8446 28.9717 40.5267 32.5471 41.9259C34.3327 42.6246 35.9729 42.9724 37.4147 42.9724C39.2145 42.9724 40.705 42.4305 41.7824 41.353C43.7229 39.4125 43.9266 36.1327 42.3554 32.1177C40.9564 28.5421 38.2742 24.6613 34.8032 21.1903Z" fill="#FFAB15"/>
<path d="M19.0131 15.8798C18.1122 15.8798 17.4062 16.0982 16.9671 16.5374C16.0355 17.4689 16.097 19.6035 17.1315 22.2472C18.3688 25.4093 20.7892 28.8895 23.9464 32.047C27.1038 35.2043 30.584 37.6246 33.7462 38.8618C36.3901 39.8964 38.5243 39.9579 39.456 39.0262C40.3875 38.0946 40.3261 35.9601 39.2916 33.3164C38.0542 30.1542 35.6339 26.674 32.4767 23.5166C29.3192 20.3593 25.8391 17.939 22.6769 16.7018C21.2792 16.1548 20.0237 15.8798 19.0131 15.8798Z" fill="#FFAB15"/>
<path d="M39.2916 33.3164C38.0542 30.1542 35.6339 26.674 32.4767 23.5166L23.9463 32.0469C27.1037 35.2042 30.5839 37.6244 33.7461 38.8617C36.39 39.8963 38.5242 39.9577 39.4559 39.0261C40.3876 38.0948 40.3262 35.9602 39.2916 33.3164Z" fill="#FF9400"/>
<path d="M29.5168 28.8029L27.1904 26.4765C29.3048 24.3621 31.4425 24.2931 33.1604 24.2376C34.6438 24.1897 35.7158 24.1551 36.9101 22.9606C38.1045 21.7664 38.139 20.6945 38.1869 19.2113C38.2422 17.4935 38.3112 15.3557 40.4256 13.2414C42.5398 11.127 44.6775 11.058 46.3955 11.0027C47.8787 10.9549 48.9505 10.9203 50.1448 9.72606C51.3392 8.53168 51.3738 7.45992 51.4216 5.97657C51.477 4.25884 51.5459 2.1211 53.6603 0.0067749L55.9867 2.33318C54.7924 3.52745 54.7578 4.59932 54.7099 6.08256C54.6546 7.80029 54.5856 9.93814 52.4713 12.0525C50.357 14.1668 48.2193 14.2358 46.5014 14.2912C45.0181 14.3389 43.9464 14.3735 42.752 15.5678C41.5576 16.7621 41.5231 17.8339 41.4752 19.3173C41.4199 21.035 41.3509 23.1728 39.2366 25.2872C37.1221 27.4016 34.9844 27.4706 33.2664 27.5261C31.7831 27.5739 30.7113 27.6083 29.5168 28.8029Z" fill="#063E8B"/>
<path d="M24.0367 22.4084C23.6246 20.9826 23.3268 19.9525 24.0945 18.448C24.8621 16.9435 25.871 16.5801 27.2672 16.0769C28.8841 15.4944 30.8963 14.7694 32.2553 12.106C33.6142 9.44268 33.0205 7.38774 32.5433 5.73662C32.1312 4.31091 31.8335 3.28071 32.6011 1.77626L29.6705 0.280884C28.3115 2.94427 28.9053 4.9991 29.3825 6.65023C29.7946 8.07593 30.0923 9.10613 29.3247 10.6106C28.5571 12.115 27.5483 12.4785 26.152 12.9816C24.5351 13.5641 22.5229 14.2892 21.1639 16.9526C19.8048 19.6161 20.3986 21.6709 20.876 23.3219C21.288 24.7477 21.5857 25.7778 20.8181 27.2823C20.6894 27.5346 20.5512 27.7573 20.4021 27.959C21.0482 28.829 21.7572 29.6952 22.5224 30.5462C22.9972 30.04 23.4039 29.4535 23.7487 28.7778C25.1076 26.1143 24.5137 24.0594 24.0367 22.4084Z" fill="#86D6F2"/>
<path d="M41.0315 35.4296C42.3773 36.4984 44.0533 37.8288 47.0322 37.5838C50.0124 37.3391 51.4477 35.7532 52.6011 34.4791C53.5969 33.3788 54.3166 32.5838 56 32.4456L55.7305 29.1666C52.7505 29.4113 51.315 30.9971 50.1618 32.2713C49.1659 33.3716 48.4462 34.1666 46.7627 34.3049C45.0796 34.4431 44.2398 33.7763 43.0776 32.8533C41.7318 31.7845 40.0573 30.4538 37.0768 30.699C34.0968 30.9438 32.6612 32.5295 31.508 33.8037C30.5584 34.853 29.8578 35.6231 28.3354 35.8123C29.4978 36.655 30.6642 37.3826 31.8075 37.9761C32.7032 37.3848 33.3618 36.6582 33.9472 36.0116C34.9431 34.9113 35.6628 34.1162 37.3463 33.978C39.0299 33.8395 39.8694 34.5065 41.0315 35.4296Z" fill="#F4717A"/>
<path d="M21.9229 9.65091C23.1343 9.65091 24.1163 8.66889 24.1163 7.4575C24.1163 6.24612 23.1343 5.2641 21.9229 5.2641C20.7115 5.2641 19.7295 6.24612 19.7295 7.4575C19.7295 8.66889 20.7115 9.65091 21.9229 9.65091Z" fill="#063E8B"/>
<path d="M52.0438 43.687C53.2551 43.687 54.2372 42.705 54.2372 41.4936C54.2372 40.2822 53.2551 39.3002 52.0438 39.3002C50.8324 39.3002 49.8503 40.2822 49.8503 41.4936C49.8503 42.705 50.8324 43.687 52.0438 43.687Z" fill="#86D6F2"/>
<path d="M47.5857 26.6519C48.7971 26.6519 49.7791 25.6699 49.7791 24.4585C49.7791 23.2472 48.7971 22.2651 47.5857 22.2651C46.3744 22.2651 45.3923 23.2472 45.3923 24.4585C45.3923 25.6699 46.3744 26.6519 47.5857 26.6519Z" fill="#F4717A"/>
<path d="M42.6507 7.45749C43.8621 7.45749 44.8441 6.47547 44.8441 5.26409C44.8441 4.0527 43.8621 3.07068 42.6507 3.07068C41.4393 3.07068 40.4573 4.0527 40.4573 5.26409C40.4573 6.47547 41.4393 7.45749 42.6507 7.45749Z" fill="#F4717A"/>
</g>
<defs>
<clipPath id="clip0_149_33067">
<rect width="56" height="56" fill="white"/>
</clipPath>
</defs>
</svg>
