<svg width="1920" height="72" viewBox="0 0 1920 72" fill="none" xmlns="http://www.w3.org/2000/svg">
<g filter="url(#filter0_b_313_728)">
<rect x="1453.5" y="12.5" width="239" height="47" rx="3.5" fill="#0A1013"/>
<rect x="1453.5" y="12.5" width="239" height="47" rx="3.5" fill="url(#paint0_radial_313_728)" fill-opacity="0.1"/>
<rect x="1453.5" y="12.5" width="239" height="47" rx="3.5" stroke="#2B937A"/>
<path d="M1518.87 41.66C1518.05 41.66 1517.29 41.5213 1516.6 41.244C1515.91 40.956 1515.32 40.556 1514.8 40.044C1514.3 39.5213 1513.91 38.908 1513.64 38.204C1513.36 37.4893 1513.22 36.7107 1513.22 35.868C1513.22 35.0467 1513.36 34.2893 1513.65 33.596C1513.94 32.892 1514.35 32.284 1514.87 31.772C1515.39 31.2493 1516 30.844 1516.71 30.556C1517.41 30.268 1518.17 30.124 1519 30.124C1519.53 30.124 1520.05 30.1987 1520.56 30.348C1521.09 30.4867 1521.56 30.6947 1521.99 30.972C1522.43 31.2493 1522.8 31.58 1523.11 31.964L1521.6 33.628C1521.36 33.372 1521.1 33.1533 1520.82 32.972C1520.54 32.78 1520.25 32.636 1519.94 32.54C1519.64 32.4333 1519.32 32.38 1518.98 32.38C1518.52 32.38 1518.09 32.4653 1517.68 32.636C1517.29 32.8067 1516.94 33.0467 1516.64 33.356C1516.35 33.6547 1516.11 34.0227 1515.92 34.46C1515.75 34.8867 1515.67 35.3613 1515.67 35.884C1515.67 36.4173 1515.75 36.9027 1515.92 37.34C1516.09 37.7667 1516.33 38.1347 1516.64 38.444C1516.95 38.7427 1517.32 38.9773 1517.75 39.148C1518.19 39.308 1518.67 39.388 1519.19 39.388C1519.53 39.388 1519.86 39.34 1520.18 39.244C1520.5 39.148 1520.79 39.0147 1521.06 38.844C1521.34 38.6733 1521.58 38.476 1521.8 38.252L1522.98 40.124C1522.71 40.412 1522.36 40.6733 1521.92 40.908C1521.5 41.1427 1521.02 41.3293 1520.48 41.468C1519.95 41.596 1519.41 41.66 1518.87 41.66ZM1528.6 41.66C1527.74 41.66 1526.97 41.4733 1526.28 41.1C1525.61 40.716 1525.08 40.1933 1524.68 39.532C1524.3 38.8707 1524.11 38.1133 1524.11 37.26C1524.11 36.4067 1524.3 35.6493 1524.68 34.988C1525.08 34.3267 1525.61 33.8093 1526.28 33.436C1526.97 33.052 1527.74 32.86 1528.6 32.86C1529.46 32.86 1530.22 33.052 1530.89 33.436C1531.57 33.8093 1532.11 34.3267 1532.49 34.988C1532.88 35.6493 1533.07 36.4067 1533.07 37.26C1533.07 38.1133 1532.88 38.8707 1532.49 39.532C1532.11 40.1933 1531.57 40.716 1530.89 41.1C1530.22 41.4733 1529.46 41.66 1528.6 41.66ZM1528.6 39.676C1529.02 39.676 1529.39 39.5747 1529.72 39.372C1530.05 39.1587 1530.31 38.8707 1530.49 38.508C1530.68 38.1347 1530.77 37.7187 1530.76 37.26C1530.77 36.7907 1530.68 36.3747 1530.49 36.012C1530.31 35.6387 1530.05 35.3507 1529.72 35.148C1529.39 34.9347 1529.02 34.828 1528.6 34.828C1528.18 34.828 1527.8 34.9347 1527.47 35.148C1527.14 35.3613 1526.88 35.6493 1526.68 36.012C1526.49 36.3747 1526.4 36.7907 1526.41 37.26C1526.4 37.7187 1526.49 38.1347 1526.68 38.508C1526.88 38.8707 1527.14 39.1587 1527.47 39.372C1527.8 39.5747 1528.18 39.676 1528.6 39.676ZM1534.79 41.5V33.036H1536.97L1537.03 34.764L1536.58 34.956C1536.7 34.572 1536.91 34.2253 1537.21 33.916C1537.52 33.596 1537.89 33.34 1538.31 33.148C1538.74 32.956 1539.19 32.86 1539.66 32.86C1540.3 32.86 1540.83 32.988 1541.26 33.244C1541.69 33.5 1542.02 33.8893 1542.23 34.412C1542.46 34.924 1542.57 35.5587 1542.57 36.316V41.5H1540.3V36.492C1540.3 36.108 1540.24 35.788 1540.14 35.532C1540.03 35.276 1539.86 35.0893 1539.64 34.972C1539.43 34.8547 1539.16 34.8013 1538.84 34.812C1538.58 34.812 1538.34 34.8547 1538.12 34.94C1537.91 35.0147 1537.72 35.1267 1537.56 35.276C1537.41 35.4253 1537.29 35.596 1537.19 35.788C1537.11 35.98 1537.06 36.188 1537.06 36.412V41.5H1535.94C1535.7 41.5 1535.48 41.5 1535.29 41.5C1535.1 41.5 1534.93 41.5 1534.79 41.5ZM1544.75 41.5V33.036H1546.92L1546.99 34.764L1546.54 34.956C1546.65 34.572 1546.86 34.2253 1547.16 33.916C1547.47 33.596 1547.84 33.34 1548.27 33.148C1548.69 32.956 1549.14 32.86 1549.61 32.86C1550.25 32.86 1550.78 32.988 1551.21 33.244C1551.65 33.5 1551.97 33.8893 1552.19 34.412C1552.41 34.924 1552.52 35.5587 1552.52 36.316V41.5H1550.25V36.492C1550.25 36.108 1550.2 35.788 1550.09 35.532C1549.98 35.276 1549.82 35.0893 1549.59 34.972C1549.38 34.8547 1549.11 34.8013 1548.79 34.812C1548.54 34.812 1548.3 34.8547 1548.07 34.94C1547.86 35.0147 1547.67 35.1267 1547.51 35.276C1547.36 35.4253 1547.24 35.596 1547.15 35.788C1547.06 35.98 1547.02 36.188 1547.02 36.412V41.5H1545.9C1545.65 41.5 1545.43 41.5 1545.24 41.5C1545.05 41.5 1544.88 41.5 1544.75 41.5ZM1558.71 41.66C1557.8 41.66 1556.99 41.4733 1556.3 41.1C1555.62 40.7267 1555.08 40.2147 1554.7 39.564C1554.33 38.9133 1554.14 38.1667 1554.14 37.324C1554.14 36.6627 1554.25 36.06 1554.46 35.516C1554.67 34.972 1554.97 34.5027 1555.35 34.108C1555.74 33.7027 1556.19 33.3933 1556.71 33.18C1557.25 32.956 1557.82 32.844 1558.44 32.844C1559.02 32.844 1559.55 32.9507 1560.04 33.164C1560.53 33.3773 1560.95 33.676 1561.31 34.06C1561.67 34.4333 1561.95 34.8813 1562.14 35.404C1562.33 35.916 1562.42 36.4707 1562.39 37.068L1562.38 37.772H1555.58L1555.21 36.38H1560.51L1560.25 36.668V36.316C1560.23 36.028 1560.13 35.772 1559.96 35.548C1559.8 35.3133 1559.59 35.132 1559.34 35.004C1559.08 34.8653 1558.79 34.796 1558.47 34.796C1558.01 34.796 1557.61 34.8867 1557.27 35.068C1556.95 35.2493 1556.71 35.516 1556.54 35.868C1556.37 36.22 1556.28 36.6467 1556.28 37.148C1556.28 37.66 1556.39 38.1027 1556.6 38.476C1556.83 38.8493 1557.14 39.1427 1557.53 39.356C1557.94 39.5587 1558.41 39.66 1558.95 39.66C1559.33 39.66 1559.67 39.6013 1559.98 39.484C1560.29 39.3667 1560.62 39.164 1560.97 38.876L1562.06 40.396C1561.75 40.6733 1561.41 40.908 1561.03 41.1C1560.66 41.2813 1560.28 41.42 1559.88 41.516C1559.49 41.612 1559.1 41.66 1558.71 41.66ZM1567.75 41.66C1566.94 41.66 1566.22 41.468 1565.58 41.084C1564.94 40.7 1564.43 40.1773 1564.06 39.516C1563.69 38.8547 1563.51 38.1027 1563.51 37.26C1563.51 36.4173 1563.69 35.6653 1564.06 35.004C1564.43 34.3427 1564.94 33.82 1565.58 33.436C1566.22 33.052 1566.94 32.86 1567.75 32.86C1568.51 32.86 1569.2 32.9987 1569.83 33.276C1570.46 33.5533 1570.95 33.9373 1571.31 34.428L1570.06 35.932C1569.91 35.7293 1569.72 35.548 1569.5 35.388C1569.27 35.2173 1569.03 35.084 1568.76 34.988C1568.51 34.892 1568.24 34.844 1567.96 34.844C1567.52 34.844 1567.13 34.9507 1566.79 35.164C1566.46 35.3667 1566.2 35.6493 1566.01 36.012C1565.82 36.3747 1565.72 36.7907 1565.72 37.26C1565.72 37.708 1565.82 38.1133 1566.01 38.476C1566.21 38.8387 1566.48 39.1267 1566.83 39.34C1567.17 39.5533 1567.55 39.66 1567.98 39.66C1568.25 39.66 1568.52 39.6227 1568.76 39.548C1569.01 39.4733 1569.24 39.356 1569.45 39.196C1569.67 39.036 1569.88 38.844 1570.06 38.62L1571.29 40.124C1570.94 40.5827 1570.44 40.956 1569.79 41.244C1569.15 41.5213 1568.47 41.66 1567.75 41.66ZM1573.56 41.5V30.892H1575.83V41.5H1573.56ZM1571.98 35.068V33.036H1577.58V35.068H1571.98ZM1586.4 41.5L1582.99 30.3H1585.45L1587.28 36.556C1587.35 36.78 1587.42 37.0253 1587.47 37.292C1587.53 37.548 1587.58 37.7987 1587.61 38.044C1587.66 38.2787 1587.69 38.5027 1587.71 38.716C1587.74 38.9187 1587.77 39.0893 1587.79 39.228L1587.4 39.212C1587.5 38.764 1587.58 38.3907 1587.64 38.092C1587.71 37.7827 1587.77 37.5107 1587.82 37.276C1587.88 37.0307 1587.96 36.7853 1588.04 36.54L1589.8 31.916H1591.79L1593.52 36.54C1593.64 36.86 1593.75 37.1693 1593.82 37.468C1593.91 37.756 1593.98 38.0387 1594.03 38.316C1594.08 38.5827 1594.13 38.8547 1594.17 39.132L1593.84 39.196C1593.87 38.972 1593.89 38.78 1593.9 38.62C1593.92 38.4493 1593.94 38.2947 1593.95 38.156C1593.97 38.0173 1593.99 37.8787 1594.01 37.74C1594.03 37.5907 1594.07 37.42 1594.11 37.228C1594.15 37.0253 1594.22 36.7907 1594.3 36.524L1596.11 30.3H1598.54L1595.1 41.5H1593.31L1590.56 34.876L1590.81 34.908L1588.24 41.5H1586.4ZM1602.62 41.66C1601.91 41.66 1601.28 41.468 1600.71 41.084C1600.15 40.7 1599.7 40.1773 1599.37 39.516C1599.04 38.8547 1598.87 38.0973 1598.87 37.244C1598.87 36.3907 1599.04 35.6333 1599.37 34.972C1599.71 34.3107 1600.17 33.7933 1600.74 33.42C1601.32 33.0467 1601.98 32.86 1602.71 32.86C1603.13 32.86 1603.51 32.924 1603.85 33.052C1604.2 33.1693 1604.5 33.3347 1604.76 33.548C1605.03 33.7613 1605.25 34.0067 1605.43 34.284C1605.61 34.5613 1605.74 34.86 1605.82 35.18L1605.34 35.1V33.036H1607.59V41.5H1605.3V39.468L1605.82 39.42C1605.73 39.7187 1605.59 40.0013 1605.4 40.268C1605.21 40.5347 1604.97 40.7747 1604.68 40.988C1604.4 41.1907 1604.09 41.356 1603.74 41.484C1603.38 41.6013 1603.01 41.66 1602.62 41.66ZM1603.24 39.692C1603.67 39.692 1604.04 39.5907 1604.36 39.388C1604.68 39.1853 1604.93 38.9027 1605.1 38.54C1605.28 38.1667 1605.37 37.7347 1605.37 37.244C1605.37 36.764 1605.28 36.3427 1605.1 35.98C1604.93 35.6173 1604.68 35.3347 1604.36 35.132C1604.04 34.9187 1603.67 34.812 1603.24 34.812C1602.82 34.812 1602.46 34.9187 1602.14 35.132C1601.83 35.3347 1601.58 35.6173 1601.4 35.98C1601.22 36.3427 1601.13 36.764 1601.13 37.244C1601.13 37.7347 1601.22 38.1667 1601.4 38.54C1601.58 38.9027 1601.83 39.1853 1602.14 39.388C1602.46 39.5907 1602.82 39.692 1603.24 39.692ZM1609.89 41.5V29.66H1612.16V41.5H1609.89ZM1614.48 41.5V29.66H1616.75V41.5H1614.48ZM1622.92 41.66C1622 41.66 1621.19 41.4733 1620.5 41.1C1619.82 40.7267 1619.29 40.2147 1618.9 39.564C1618.53 38.9133 1618.34 38.1667 1618.34 37.324C1618.34 36.6627 1618.45 36.06 1618.66 35.516C1618.87 34.972 1619.17 34.5027 1619.56 34.108C1619.94 33.7027 1620.39 33.3933 1620.92 33.18C1621.45 32.956 1622.03 32.844 1622.65 32.844C1623.22 32.844 1623.75 32.9507 1624.25 33.164C1624.74 33.3773 1625.16 33.676 1625.51 34.06C1625.87 34.4333 1626.15 34.8813 1626.34 35.404C1626.53 35.916 1626.62 36.4707 1626.6 37.068L1626.58 37.772H1619.78L1619.41 36.38H1624.71L1624.45 36.668V36.316C1624.43 36.028 1624.34 35.772 1624.17 35.548C1624.01 35.3133 1623.8 35.132 1623.54 35.004C1623.29 34.8653 1623 34.796 1622.68 34.796C1622.21 34.796 1621.81 34.8867 1621.48 35.068C1621.16 35.2493 1620.91 35.516 1620.74 35.868C1620.57 36.22 1620.49 36.6467 1620.49 37.148C1620.49 37.66 1620.59 38.1027 1620.81 38.476C1621.03 38.8493 1621.34 39.1427 1621.73 39.356C1622.14 39.5587 1622.61 39.66 1623.16 39.66C1623.53 39.66 1623.87 39.6013 1624.18 39.484C1624.49 39.3667 1624.82 39.164 1625.17 38.876L1626.26 40.396C1625.95 40.6733 1625.61 40.908 1625.24 41.1C1624.86 41.2813 1624.48 41.42 1624.09 41.516C1623.69 41.612 1623.3 41.66 1622.92 41.66ZM1629.09 41.5V30.892H1631.36V41.5H1629.09ZM1627.51 35.068V33.036H1633.11V35.068H1627.51Z" fill="white"/>
<rect x="1709.5" y="12.5" width="144" height="47" rx="3.5" fill="#0A1013"/>
<rect x="1709.5" y="12.5" width="144" height="47" rx="3.5" fill="url(#paint1_radial_313_728)" fill-opacity="0.1"/>
<rect x="1709.5" y="12.5" width="144" height="47" rx="3.5" stroke="#2B937A"/>
<g clip-path="url(#clip0_313_728)">
<path d="M1734 48C1727.37 48 1722 42.6274 1722 36C1722 29.3726 1727.37 24 1734 24C1740.63 24 1746 29.3726 1746 36C1746 42.6274 1740.63 48 1734 48Z" fill="#012169"/>
<path d="M1724.75 28.3528L1734 33.9008L1743.25 28.3528C1744.02 29.2827 1744.64 30.3235 1745.1 31.44L1737.5 36L1745.1 40.56C1744.64 41.6767 1744.02 42.7178 1743.25 43.648L1734 38.0992L1724.75 43.6472C1723.98 42.717 1723.36 41.6759 1722.9 40.5592L1730.5 35.9992L1722.9 31.4392C1723.36 30.323 1723.98 29.2825 1724.75 28.3528Z" fill="white"/>
<path d="M1743.61 43.1656L1732.83 36.7L1723.72 42.168C1723.51 41.8243 1723.32 41.4705 1723.15 41.108L1732.83 35.3L1723.72 29.8328C1723.93 29.4882 1724.15 29.1554 1724.39 28.8344L1735.17 35.3L1744.28 29.8328C1744.49 30.1752 1744.67 30.5282 1744.85 30.892L1735.17 36.7L1744.28 42.168C1744.07 42.5115 1743.85 42.8444 1743.61 43.1656Z" fill="#C8102E"/>
<path d="M1731 24.3936C1732.97 23.8688 1735.03 23.8688 1737 24.3936V33H1745.61C1746.13 34.9656 1746.13 37.0344 1745.61 39H1737V47.6064C1735.03 48.1312 1732.97 48.1312 1731 47.6064V39H1722.39C1721.87 37.0344 1721.87 34.9656 1722.39 33H1731V24.3936Z" fill="white"/>
<path d="M1732.2 24.1496C1732.8 24.0547 1733.4 24.0047 1734 24C1734.6 24.0047 1735.2 24.0547 1735.8 24.1496V34.2H1745.85C1745.95 34.7954 1746 35.3971 1746 36C1746 36.6029 1745.95 37.2046 1745.85 37.8H1735.8V47.8504C1735.2 47.9453 1734.6 47.9953 1734 48C1733.4 47.9953 1732.8 47.9453 1732.2 47.8504V37.8H1722.15C1722.05 37.2046 1722 36.6029 1722 36C1722 35.3971 1722.05 34.7954 1722.15 34.2H1732.2V24.1496Z" fill="#C8102E"/>
</g>
<path d="M1757.57 41.5V30.3H1764.62V31.964H1759.3V39.836H1764.62V41.5H1757.57ZM1758.35 36.588V34.924H1763.74V36.588H1758.35ZM1766.98 41.5V33.1H1768.63V34.828L1768.34 35.02C1768.45 34.6467 1768.65 34.3053 1768.96 33.996C1769.27 33.676 1769.64 33.42 1770.07 33.228C1770.49 33.0253 1770.93 32.924 1771.38 32.924C1772.02 32.924 1772.55 33.052 1772.98 33.308C1773.41 33.5533 1773.73 33.932 1773.94 34.444C1774.15 34.956 1774.26 35.6013 1774.26 36.38V41.5H1772.61V36.492C1772.61 36.012 1772.55 35.6173 1772.42 35.308C1772.29 34.988 1772.09 34.7587 1771.83 34.62C1771.56 34.4707 1771.23 34.4067 1770.84 34.428C1770.52 34.428 1770.22 34.4813 1769.96 34.588C1769.69 34.684 1769.45 34.8227 1769.25 35.004C1769.06 35.1853 1768.91 35.3987 1768.79 35.644C1768.68 35.8787 1768.63 36.1347 1768.63 36.412V41.5H1767.81C1767.67 41.5 1767.53 41.5 1767.4 41.5C1767.26 41.5 1767.12 41.5 1766.98 41.5ZM1780.26 45.18C1779.66 45.18 1779.06 45.084 1778.46 44.892C1777.88 44.7107 1777.4 44.4707 1777.04 44.172L1777.65 42.892C1777.86 43.052 1778.11 43.1907 1778.4 43.308C1778.69 43.436 1778.99 43.532 1779.31 43.596C1779.63 43.6707 1779.95 43.708 1780.26 43.708C1780.84 43.708 1781.33 43.612 1781.73 43.42C1782.12 43.228 1782.42 42.9453 1782.62 42.572C1782.83 42.1987 1782.93 41.7347 1782.93 41.18V39.564L1783.1 39.676C1783.05 40.0067 1782.87 40.3267 1782.58 40.636C1782.29 40.9347 1781.93 41.18 1781.49 41.372C1781.05 41.564 1780.6 41.66 1780.14 41.66C1779.34 41.66 1778.63 41.4733 1778 41.1C1777.38 40.716 1776.89 40.1987 1776.53 39.548C1776.17 38.8867 1775.98 38.1347 1775.98 37.292C1775.98 36.4493 1776.16 35.7027 1776.51 35.052C1776.87 34.3907 1777.37 33.8733 1777.98 33.5C1778.61 33.116 1779.32 32.924 1780.1 32.924C1780.42 32.924 1780.73 32.9667 1781.02 33.052C1781.32 33.1267 1781.6 33.2387 1781.86 33.388C1782.11 33.5267 1782.34 33.6813 1782.54 33.852C1782.75 34.0227 1782.91 34.204 1783.04 34.396C1783.17 34.588 1783.25 34.7693 1783.28 34.94L1782.93 35.068V33.1H1784.58V40.988C1784.58 41.66 1784.47 42.252 1784.27 42.764C1784.08 43.2867 1783.8 43.724 1783.42 44.076C1783.05 44.4387 1782.6 44.7107 1782.06 44.892C1781.53 45.084 1780.93 45.18 1780.26 45.18ZM1780.32 40.14C1780.84 40.14 1781.31 40.0173 1781.71 39.772C1782.12 39.5267 1782.43 39.1907 1782.66 38.764C1782.88 38.3373 1782.99 37.8467 1782.99 37.292C1782.99 36.7373 1782.87 36.2467 1782.64 35.82C1782.42 35.3827 1782.1 35.0413 1781.7 34.796C1781.3 34.5507 1780.84 34.428 1780.32 34.428C1779.81 34.428 1779.35 34.556 1778.94 34.812C1778.55 35.0573 1778.23 35.3987 1778 35.836C1777.78 36.2627 1777.66 36.748 1777.66 37.292C1777.66 37.836 1777.78 38.3267 1778 38.764C1778.23 39.1907 1778.55 39.5267 1778.94 39.772C1779.35 40.0173 1779.81 40.14 1780.32 40.14ZM1786.92 41.5V29.66H1788.57V41.5H1786.92ZM1791.17 41.5V33.1H1792.82V41.5H1791.17ZM1791.97 31.244C1791.62 31.244 1791.35 31.1533 1791.16 30.972C1790.97 30.7907 1790.87 30.5347 1790.87 30.204C1790.87 29.8947 1790.97 29.644 1791.16 29.452C1791.36 29.26 1791.63 29.164 1791.97 29.164C1792.33 29.164 1792.6 29.2547 1792.79 29.436C1792.98 29.6173 1793.08 29.8733 1793.08 30.204C1793.08 30.5133 1792.98 30.764 1792.77 30.956C1792.58 31.148 1792.32 31.244 1791.97 31.244ZM1798.16 41.66C1797.45 41.66 1796.82 41.5373 1796.25 41.292C1795.69 41.0467 1795.22 40.684 1794.84 40.204L1795.96 39.244C1796.28 39.6173 1796.63 39.8893 1797 40.06C1797.39 40.22 1797.82 40.3 1798.3 40.3C1798.49 40.3 1798.67 40.2787 1798.83 40.236C1799 40.1827 1799.14 40.108 1799.26 40.012C1799.39 39.916 1799.48 39.804 1799.55 39.676C1799.61 39.5373 1799.64 39.388 1799.64 39.228C1799.64 38.9507 1799.54 38.7267 1799.34 38.556C1799.23 38.4813 1799.06 38.4013 1798.83 38.316C1798.6 38.22 1798.31 38.124 1797.95 38.028C1797.33 37.868 1796.82 37.6867 1796.43 37.484C1796.03 37.2813 1795.73 37.052 1795.52 36.796C1795.36 36.5933 1795.24 36.3747 1795.16 36.14C1795.09 35.8947 1795.05 35.628 1795.05 35.34C1795.05 34.988 1795.13 34.668 1795.28 34.38C1795.44 34.0813 1795.65 33.8253 1795.92 33.612C1796.19 33.388 1796.51 33.2173 1796.88 33.1C1797.25 32.9827 1797.64 32.924 1798.06 32.924C1798.45 32.924 1798.84 32.9773 1799.23 33.084C1799.62 33.1907 1799.98 33.3453 1800.32 33.548C1800.65 33.7507 1800.92 33.9907 1801.15 34.268L1800.2 35.308C1800 35.1053 1799.78 34.9293 1799.53 34.78C1799.3 34.62 1799.06 34.4973 1798.81 34.412C1798.57 34.3267 1798.34 34.284 1798.14 34.284C1797.92 34.284 1797.71 34.3053 1797.53 34.348C1797.35 34.3907 1797.2 34.4547 1797.07 34.54C1796.95 34.6253 1796.86 34.732 1796.8 34.86C1796.73 34.988 1796.7 35.132 1796.7 35.292C1796.71 35.4307 1796.74 35.564 1796.8 35.692C1796.86 35.8093 1796.94 35.9107 1797.05 35.996C1797.17 36.0813 1797.34 36.172 1797.58 36.268C1797.81 36.364 1798.11 36.4547 1798.48 36.54C1799.01 36.6787 1799.45 36.8333 1799.79 37.004C1800.14 37.164 1800.42 37.3507 1800.62 37.564C1800.83 37.7667 1800.98 38.0013 1801.07 38.268C1801.15 38.5347 1801.2 38.8333 1801.2 39.164C1801.2 39.644 1801.06 40.076 1800.78 40.46C1800.51 40.8333 1800.15 41.1267 1799.69 41.34C1799.23 41.5533 1798.72 41.66 1798.16 41.66ZM1803.01 41.5V29.66H1804.66V34.828L1804.37 35.02C1804.48 34.6467 1804.69 34.3053 1805 33.996C1805.3 33.676 1805.67 33.42 1806.1 33.228C1806.53 33.0253 1806.96 32.924 1807.41 32.924C1808.05 32.924 1808.58 33.052 1809.01 33.308C1809.44 33.5533 1809.76 33.932 1809.97 34.444C1810.18 34.956 1810.29 35.6013 1810.29 36.38V41.5H1808.64V36.492C1808.64 36.012 1808.58 35.6173 1808.45 35.308C1808.32 34.988 1808.13 34.7587 1807.86 34.62C1807.59 34.4707 1807.26 34.4067 1806.87 34.428C1806.55 34.428 1806.25 34.4813 1805.99 34.588C1805.72 34.684 1805.49 34.8227 1805.28 35.004C1805.09 35.1853 1804.94 35.3987 1804.82 35.644C1804.71 35.8787 1804.66 36.1347 1804.66 36.412V41.5H1803.84C1803.7 41.5 1803.57 41.5 1803.43 41.5C1803.29 41.5 1803.15 41.5 1803.01 41.5Z" fill="white"/>
<path fill-rule="evenodd" clip-rule="evenodd" d="M1838.42 39.0893C1838.1 39.4147 1837.57 39.4147 1837.24 39.0893L1832 33.8452L1826.76 39.0893C1826.43 39.4147 1825.9 39.4147 1825.58 39.0893C1825.25 38.7639 1825.25 38.2362 1825.58 37.9108L1831.41 32.0775C1831.74 31.752 1832.26 31.752 1832.59 32.0775L1838.42 37.9108C1838.75 38.2362 1838.75 38.7639 1838.42 39.0893Z" fill="white"/>
<path d="M102.888 30.032L107.784 44H105.288L100.848 31.304C100.488 30.272 99.528 29.6 98.448 29.6H94.536C93.456 29.6 92.496 30.272 92.136 31.304L87.696 44H85.2L90.096 30.032C90.672 28.328 92.28 27.2 94.08 27.2H98.904C100.704 27.2 102.312 28.328 102.888 30.032ZM107.794 29.6V27.2H113.914V29.6H107.794ZM116.314 44V30.2C116.314 28.4 117.514 27.2 119.314 27.2H127.234V29.6H120.034C119.242 29.6 118.714 30.128 118.714 30.92V44H116.314ZM130.118 44V27.2H132.518V34.4H148.118V27.2H150.518V44H148.118V36.8H132.518V44H130.118ZM153.883 29.6V27.2H173.323V29.6H153.883ZM153.883 36.8V34.4H173.323V36.8H153.883ZM153.883 44V41.6H173.323V44H153.883ZM181.392 29.6H179.088V44H176.688V27.2H180.864C182.664 27.2 184.416 28.256 185.256 29.864L190.704 40.424C191.064 41.12 191.832 41.6 192.624 41.6H194.928V27.2H197.328V44H193.152C191.352 44 189.6 42.944 188.76 41.336L183.312 30.776C182.952 30.056 182.184 29.6 181.392 29.6ZM200.688 29.6V27.2H220.128V29.6H200.688ZM200.688 36.8V34.4H220.128V36.8H200.688ZM200.688 44V41.6H220.128V44H200.688Z" fill="#94FFDF"/>
<path d="M306.012 34.5V23.3H308.412V34.5H306.012ZM298.956 34.5V23.3H301.356V34.5H298.956ZM299.916 30.004L299.932 27.828H307.244V30.004H299.916ZM316.307 34.66C315.475 34.66 314.712 34.516 314.019 34.228C313.326 33.94 312.718 33.54 312.195 33.028C311.683 32.5053 311.288 31.892 311.011 31.188C310.734 30.4733 310.595 29.7 310.595 28.868C310.595 28.0253 310.734 27.252 311.011 26.548C311.288 25.844 311.683 25.236 312.195 24.724C312.718 24.2013 313.326 23.796 314.019 23.508C314.712 23.22 315.47 23.076 316.291 23.076C317.123 23.076 317.88 23.22 318.563 23.508C319.256 23.796 319.859 24.2013 320.371 24.724C320.894 25.2467 321.294 25.86 321.571 26.564C321.848 27.268 321.987 28.036 321.987 28.868C321.987 29.7 321.848 30.468 321.571 31.172C321.294 31.876 320.894 32.4893 320.371 33.012C319.859 33.5347 319.256 33.94 318.563 34.228C317.88 34.516 317.128 34.66 316.307 34.66ZM316.291 32.388C316.771 32.388 317.208 32.3027 317.603 32.132C317.998 31.9507 318.339 31.7053 318.627 31.396C318.915 31.076 319.139 30.7027 319.299 30.276C319.47 29.8493 319.555 29.38 319.555 28.868C319.555 28.356 319.47 27.8867 319.299 27.46C319.139 27.0333 318.915 26.6653 318.627 26.356C318.339 26.036 317.998 25.7907 317.603 25.62C317.208 25.4387 316.771 25.348 316.291 25.348C315.822 25.348 315.39 25.4387 314.995 25.62C314.6 25.7907 314.254 26.036 313.955 26.356C313.656 26.6653 313.427 27.0333 313.267 27.46C313.118 27.8867 313.043 28.356 313.043 28.868C313.043 29.38 313.118 29.8493 313.267 30.276C313.427 30.7027 313.656 31.076 313.955 31.396C314.254 31.7053 314.6 31.9507 314.995 32.132C315.39 32.3027 315.822 32.388 316.291 32.388ZM324.159 34.5V23.3H326.351L330.431 29.94L328.991 29.924L333.119 23.3H335.215V34.5H332.863V30.66C332.863 29.7 332.884 28.836 332.927 28.068C332.98 27.3 333.066 26.5373 333.183 25.78L333.471 26.532L330.191 31.62H329.135L325.919 26.564L326.191 25.78C326.308 26.4947 326.388 27.2307 326.431 27.988C326.484 28.7347 326.511 29.6253 326.511 30.66V34.5H324.159ZM338.128 34.5V23.3H345.696V25.412H340.48V32.388H345.808V34.5H338.128ZM339.248 29.812V27.764H344.928V29.812H339.248Z" fill="#94FFDF"/>
<rect x="295" y="46.5" width="55" height="2" fill="#00FFD5"/>
<path d="M408.512 34.5V23.3H410.912V34.5H408.512ZM401.456 34.5V23.3H403.856V34.5H401.456ZM402.416 30.004L402.432 27.828H409.744V30.004H402.416ZM413.543 34.5V32.436H415.415V25.364H413.543V23.3H419.687V25.364H417.815V32.436H419.687V34.5H413.543ZM425.947 34.66C425.254 34.66 424.619 34.5747 424.043 34.404C423.478 34.2333 422.971 33.9827 422.523 33.652C422.086 33.3213 421.691 32.9213 421.339 32.452L422.843 30.74C423.366 31.4653 423.883 31.9613 424.395 32.228C424.918 32.484 425.483 32.612 426.091 32.612C426.422 32.612 426.715 32.564 426.971 32.468C427.238 32.372 427.446 32.244 427.595 32.084C427.745 31.9133 427.819 31.7107 427.819 31.476C427.819 31.3053 427.782 31.1507 427.707 31.012C427.633 30.8627 427.526 30.7347 427.387 30.628C427.249 30.5107 427.083 30.4093 426.891 30.324C426.699 30.228 426.486 30.148 426.251 30.084C426.017 30.0093 425.761 29.9507 425.483 29.908C424.886 29.7693 424.363 29.604 423.915 29.412C423.467 29.2093 423.094 28.964 422.795 28.676C422.497 28.3773 422.273 28.0413 422.123 27.668C421.985 27.2947 421.915 26.8733 421.915 26.404C421.915 25.924 422.022 25.4813 422.235 25.076C422.449 24.66 422.742 24.3027 423.115 24.004C423.499 23.7053 423.937 23.476 424.427 23.316C424.929 23.156 425.457 23.076 426.011 23.076C426.694 23.076 427.291 23.1507 427.803 23.3C428.315 23.4493 428.758 23.6733 429.131 23.972C429.515 24.26 429.835 24.612 430.091 25.028L428.571 26.5C428.347 26.2013 428.102 25.9507 427.835 25.748C427.579 25.5453 427.297 25.396 426.987 25.3C426.689 25.1933 426.379 25.14 426.059 25.14C425.707 25.14 425.403 25.188 425.147 25.284C424.891 25.3693 424.689 25.5027 424.539 25.684C424.401 25.8547 424.331 26.0573 424.331 26.292C424.331 26.484 424.379 26.6547 424.475 26.804C424.571 26.9533 424.71 27.0867 424.891 27.204C425.073 27.3107 425.291 27.4067 425.547 27.492C425.803 27.5773 426.086 27.652 426.395 27.716C426.982 27.8333 427.51 27.988 427.979 28.18C428.449 28.372 428.849 28.6067 429.179 28.884C429.521 29.1507 429.782 29.4707 429.963 29.844C430.145 30.2067 430.235 30.6173 430.235 31.076C430.235 31.8333 430.054 32.4787 429.691 33.012C429.329 33.5453 428.827 33.956 428.187 34.244C427.547 34.5213 426.801 34.66 425.947 34.66ZM434.745 34.5V25.46H431.481V23.3H440.505V25.46H437.145V34.5H434.745ZM446.979 34.66C446.147 34.66 445.384 34.516 444.691 34.228C443.998 33.94 443.39 33.54 442.867 33.028C442.355 32.5053 441.96 31.892 441.683 31.188C441.406 30.4733 441.267 29.7 441.267 28.868C441.267 28.0253 441.406 27.252 441.683 26.548C441.96 25.844 442.355 25.236 442.867 24.724C443.39 24.2013 443.998 23.796 444.691 23.508C445.384 23.22 446.142 23.076 446.963 23.076C447.795 23.076 448.552 23.22 449.235 23.508C449.928 23.796 450.531 24.2013 451.043 24.724C451.566 25.2467 451.966 25.86 452.243 26.564C452.52 27.268 452.659 28.036 452.659 28.868C452.659 29.7 452.52 30.468 452.243 31.172C451.966 31.876 451.566 32.4893 451.043 33.012C450.531 33.5347 449.928 33.94 449.235 34.228C448.552 34.516 447.8 34.66 446.979 34.66ZM446.963 32.388C447.443 32.388 447.88 32.3027 448.275 32.132C448.67 31.9507 449.011 31.7053 449.299 31.396C449.587 31.076 449.811 30.7027 449.971 30.276C450.142 29.8493 450.227 29.38 450.227 28.868C450.227 28.356 450.142 27.8867 449.971 27.46C449.811 27.0333 449.587 26.6653 449.299 26.356C449.011 26.036 448.67 25.7907 448.275 25.62C447.88 25.4387 447.443 25.348 446.963 25.348C446.494 25.348 446.062 25.4387 445.667 25.62C445.272 25.7907 444.926 26.036 444.627 26.356C444.328 26.6653 444.099 27.0333 443.939 27.46C443.79 27.8867 443.715 28.356 443.715 28.868C443.715 29.38 443.79 29.8493 443.939 30.276C444.099 30.7027 444.328 31.076 444.627 31.396C444.926 31.7053 445.272 31.9507 445.667 32.132C446.062 32.3027 446.494 32.388 446.963 32.388ZM454.831 34.5V23.3H459.791C460.484 23.3 461.114 23.46 461.679 23.78C462.244 24.0893 462.687 24.5107 463.007 25.044C463.338 25.5773 463.503 26.1853 463.503 26.868C463.503 27.54 463.338 28.1533 463.007 28.708C462.687 29.252 462.244 29.684 461.679 30.004C461.114 30.324 460.484 30.484 459.791 30.484H457.151V34.5H454.831ZM461.183 34.5L458.335 29.444L460.799 29.044L463.967 34.516L461.183 34.5ZM457.151 28.532H459.679C459.967 28.532 460.218 28.468 460.431 28.34C460.655 28.2013 460.826 28.0147 460.943 27.78C461.06 27.5347 461.119 27.2627 461.119 26.964C461.119 26.644 461.05 26.3667 460.911 26.132C460.772 25.8973 460.57 25.716 460.303 25.588C460.036 25.4493 459.727 25.38 459.375 25.38H457.151V28.532ZM468.165 34.5V28.916L468.277 29.7L463.749 23.3H466.517L469.973 28.26L468.885 28.212L472.005 23.3H474.677L470.341 29.876L470.581 28.788V34.5H468.165Z" fill="#CDD6D4"/>
</g>
<defs>
<filter id="filter0_b_313_728" x="-40" y="-40" width="2000" height="152" filterUnits="userSpaceOnUse" color-interpolation-filters="sRGB">
<feFlood flood-opacity="0" result="BackgroundImageFix"/>
<feGaussianBlur in="BackgroundImageFix" stdDeviation="20"/>
<feComposite in2="SourceAlpha" operator="in" result="effect1_backgroundBlur_313_728"/>
<feBlend mode="normal" in="SourceGraphic" in2="effect1_backgroundBlur_313_728" result="shape"/>
</filter>
<radialGradient id="paint0_radial_313_728" cx="0" cy="0" r="1" gradientUnits="userSpaceOnUse" gradientTransform="translate(1573 36) scale(120 988.167)">
<stop stop-color="#2B937A"/>
<stop offset="1" stop-color="#2B937A" stop-opacity="0"/>
</radialGradient>
<radialGradient id="paint1_radial_313_728" cx="0" cy="0" r="1" gradientUnits="userSpaceOnUse" gradientTransform="translate(1781.5 36) scale(72.5 988.167)">
<stop stop-color="#2B937A"/>
<stop offset="1" stop-color="#2B937A" stop-opacity="0"/>
</radialGradient>
<clipPath id="clip0_313_728">
<rect width="24" height="24" fill="white" transform="matrix(-1 0 0 1 1746 24)"/>
</clipPath>
</defs>
</svg>
