<svg width="91" height="12" viewBox="0 0 91 12" fill="none" xmlns="http://www.w3.org/2000/svg">
<path d="M12.1482 2.688L15.4122 12H13.7482L10.7882 3.536C10.5482 2.848 9.90815 2.4 9.18815 2.4H6.58015C5.86015 2.4 5.22015 2.848 4.98015 3.536L2.02015 12H0.356152L3.62015 2.688C4.00415 1.552 5.07615 0.799999 6.27615 0.799999H9.49215C10.6922 0.799999 11.7642 1.552 12.1482 2.688ZM15.4187 2.4V0.799999H19.4987V2.4H15.4187ZM21.0987 12V2.8C21.0987 1.6 21.8987 0.799999 23.0987 0.799999H28.3787V2.4H23.5787C23.0507 2.4 22.6987 2.752 22.6987 3.28V12H21.0987ZM30.3012 12V0.799999H31.9012V5.6H42.3012V0.799999H43.9012V12H42.3012V7.2H31.9012V12H30.3012ZM46.1449 2.4V0.799999H59.1049V2.4H46.1449ZM46.1449 7.2V5.6H59.1049V7.2H46.1449ZM46.1449 12V10.4H59.1049V12H46.1449ZM64.484 2.4H62.948V12H61.348V0.799999H64.132C65.332 0.799999 66.5 1.504 67.06 2.576L70.692 9.616C70.932 10.08 71.444 10.4 71.972 10.4H73.508V0.799999H75.108V12H72.324C71.124 12 69.956 11.296 69.396 10.224L65.764 3.184C65.524 2.704 65.012 2.4 64.484 2.4ZM77.348 2.4V0.799999H90.308V2.4H77.348ZM77.348 7.2V5.6H90.308V7.2H77.348ZM77.348 12V10.4H90.308V12H77.348Z" fill="#94FFDF"/>
</svg>
