<svg width="225" height="28" viewBox="0 0 225 28" fill="none" xmlns="http://www.w3.org/2000/svg">
<path d="M29.5582 4.72L37.7182 28H33.5582L26.1582 6.84C25.5582 5.12 23.9582 4 22.1582 4H15.6382C13.8382 4 12.2382 5.12 11.6382 6.84L4.23822 28H0.0782166L8.23822 4.72C9.19822 1.88 11.8782 -1.90735e-06 14.8782 -1.90735e-06H22.9182C25.9182 -1.90735e-06 28.5982 1.88 29.5582 4.72ZM37.7345 4V-1.90735e-06H47.9345V4H37.7345ZM51.9345 28V5C51.9345 2 53.9345 -1.90735e-06 56.9345 -1.90735e-06H70.1345V4H58.1345C56.8145 4 55.9345 4.88 55.9345 6.2V28H51.9345ZM74.9407 28V-1.90735e-06H78.9407V12H104.941V-1.90735e-06H108.941V28H104.941V16H78.9407V28H74.9407ZM114.55 4V-1.90735e-06H146.95V4H114.55ZM114.55 16V12H146.95V16H114.55ZM114.55 28V24H146.95V28H114.55ZM160.398 4H156.558V28H152.558V-1.90735e-06H159.518C162.518 -1.90735e-06 165.438 1.76 166.838 4.44L175.918 22.04C176.518 23.2 177.798 24 179.118 24H182.958V-1.90735e-06H186.958V28H179.998C176.998 28 174.078 26.24 172.678 23.56L163.598 5.96C162.998 4.76 161.718 4 160.398 4ZM192.558 4V-1.90735e-06H224.958V4H192.558ZM192.558 16V12H224.958V16H192.558ZM192.558 28V24H224.958V28H192.558Z" fill="#94FFDF"/>
</svg>
