<svg width="24" height="24" viewBox="0 0 24 24" fill="none" xmlns="http://www.w3.org/2000/svg">
<g clip-path="url(#clip0_679_38813)">
<mask id="mask0_679_38813" style="mask-type:luminance" maskUnits="userSpaceOnUse" x="0" y="0" width="24" height="24">
<path d="M23.2577 11.997C23.2577 13.4749 22.9666 14.9382 22.4011 16.3036C21.8355 17.6689 21.0066 18.9095 19.9616 19.9545C18.9166 20.9995 17.676 21.8284 16.3107 22.394C14.9453 22.9595 13.4819 23.2506 12.0041 23.2506C10.5262 23.2506 9.06287 22.9595 7.69752 22.394C6.33217 21.8284 5.09158 20.9995 4.04659 19.9545C3.0016 18.9095 2.17266 17.6689 1.60712 16.3036C1.04157 14.9382 0.750488 13.4749 0.750488 11.997C0.750488 10.5192 1.04157 9.05579 1.60712 7.69044C2.17266 6.32509 3.0016 5.0845 4.04659 4.03951C5.09158 2.99452 6.33217 2.16558 7.69752 1.60004C9.06287 1.03449 10.5262 0.743408 12.0041 0.743408C13.4819 0.743408 14.9453 1.03449 16.3107 1.60004C17.676 2.16558 18.9166 2.99452 19.9616 4.03951C21.0066 5.0845 21.8355 6.32509 22.4011 7.69044C22.9666 9.05579 23.2577 10.5192 23.2577 11.997Z" fill="white"/>
</mask>
<g mask="url(#mask0_679_38813)">
<path d="M1.8249 0.274414C0.969684 0.274414 0.281738 0.963886 0.281738 1.8191V22.1763C0.281738 23.0315 0.969684 23.7194 1.8249 23.7194H22.1821C23.0373 23.7194 23.7267 23.0315 23.7267 22.1763V1.8191C23.7267 0.963886 23.0373 0.274414 22.1821 0.274414H1.8249Z" fill="#479951"/>
<path fill-rule="evenodd" clip-rule="evenodd" d="M9.81614 6.38893C9.79991 6.38845 9.77562 6.39751 9.74158 6.41771C9.66505 6.46901 9.51338 6.62703 9.50874 6.80884C9.5041 6.9114 9.48474 6.911 9.5519 6.97627C9.60042 7.04623 9.64888 7.03935 9.74681 6.98805C9.80305 6.94661 9.82205 6.92018 9.84099 6.8507C9.86432 6.73417 9.71836 6.90583 9.69972 6.77614C9.6671 6.65573 9.76028 6.6062 9.84884 6.48966C9.85087 6.43478 9.85185 6.38999 9.81614 6.38893ZM11.2419 6.39678C11.2146 6.40047 11.1811 6.43551 11.1347 6.51974C11.1014 6.60797 10.9578 6.74148 11.0614 7.01682C11.1462 7.19141 11.181 7.47514 11.1425 7.79121C11.0838 7.88104 11.0704 7.91199 10.9934 8.00182C10.8852 8.11814 10.7681 8.0884 10.6782 8.04498C10.5942 7.98836 10.5281 7.9593 10.4898 7.77943C10.4967 7.49275 10.5134 7.0235 10.461 6.92392C10.3838 6.76971 10.2564 6.82501 10.202 6.8716C9.94051 7.11069 9.81134 7.51442 9.73239 7.83565C9.65987 8.06977 9.58259 8.00206 9.52833 7.9076C9.39623 7.78381 9.38695 6.81579 9.22747 6.97494C8.97204 7.70496 9.37405 8.50468 9.65259 8.42695C9.85355 8.51014 9.98106 8.12763 10.0633 7.70881C10.1196 7.59127 10.1626 7.57775 10.1915 7.63817C10.1841 8.19515 10.2315 8.31939 10.3747 8.48842C10.6941 8.73486 10.9583 8.51964 10.979 8.49888C10.9997 8.47816 11.2276 8.25034 11.2276 8.25034C11.2829 8.19212 11.3561 8.18857 11.4342 8.23988C11.5102 8.30894 11.5005 8.42792 11.6632 8.51066C11.8001 8.56542 12.0924 8.52397 12.1602 8.40601C12.2515 8.24961 12.2736 8.19586 12.3159 8.13654C12.381 8.04984 12.4925 8.08823 12.4925 8.11561C12.4821 8.16396 12.4166 8.21166 12.4611 8.29874C12.5386 8.35684 12.5566 8.3195 12.6024 8.30659C12.7644 8.22913 12.8862 7.87754 12.8862 7.87754C12.8934 7.7464 12.8188 7.75635 12.7711 7.78335C12.7089 7.82137 12.7051 7.83429 12.6429 7.8723C12.5637 7.88408 12.4102 7.93634 12.3342 7.81867C12.2566 7.67721 12.2562 7.47998 12.1969 7.33729C12.1969 7.32692 12.0932 7.11293 12.189 7.09922C12.2374 7.10821 12.3413 7.13508 12.3578 7.0482C12.4085 6.96353 12.2483 6.72331 12.1393 6.60215C12.0447 6.49828 11.914 6.48562 11.7874 6.59169C11.6988 6.67324 11.7119 6.76432 11.6945 6.85069C11.672 6.94988 11.6763 7.07274 11.777 7.20388C11.8654 7.37834 12.0262 7.60217 11.9732 7.91808C11.9732 7.91808 11.8798 8.06842 11.7155 8.04889C11.647 8.03395 11.5354 8.00431 11.4761 7.56621C11.4312 7.23458 11.4873 6.76997 11.3466 6.55242C11.3148 6.47033 11.2875 6.39065 11.2419 6.39678ZM10.7907 6.43194C10.7481 6.43566 10.701 6.48525 10.6625 6.58107C10.6295 6.65393 10.5892 7.03499 10.5958 7.03499C10.5695 7.1484 10.7143 7.19646 10.7802 7.05068C10.8791 6.78344 10.8796 6.66959 10.8862 6.55625C10.8708 6.4699 10.8333 6.42823 10.7907 6.43194ZM12.4572 6.46203C12.4135 6.46599 12.3786 6.4916 12.3656 6.55621C12.3482 6.70815 12.3571 6.79076 12.3826 6.91725C12.4022 7.00159 12.525 7.1428 12.5854 7.22465C12.8741 7.61266 13.1518 8.00252 13.42 8.40588C13.4621 8.70538 13.493 8.99835 13.5129 9.29015C13.5563 9.92992 13.5695 10.7263 13.5299 11.4001C13.6497 11.4048 13.8418 11.2065 13.9092 10.9161C13.953 10.5144 13.8936 9.69467 13.8896 9.45758C13.8868 9.35916 13.8807 9.24172 13.8739 9.11879C14.1859 9.62859 14.4885 10.1687 14.7856 10.7618C14.8939 10.7103 14.8699 10.1005 14.8066 10.0148C14.5688 9.50301 14.2402 8.99781 14.1355 8.8035C14.0977 8.73334 13.9689 8.5375 13.8163 8.31166C13.7882 7.98941 13.7577 7.71646 13.7378 7.63404C13.6888 7.29339 13.8779 7.67246 13.8517 7.47446C13.7903 7.13427 13.6025 6.90308 13.3807 6.59148C13.3092 6.49013 13.3106 6.46946 13.2002 6.61633C13.1342 6.76606 13.1351 6.89062 13.1544 7.00746C13.1254 6.96525 13.0895 6.9152 13.038 6.8531C12.8465 6.68877 12.8347 6.67978 12.6757 6.5457C12.6255 6.51012 12.5301 6.45537 12.4572 6.46198L12.4572 6.46203ZM17.3966 6.51305C17.3753 6.50974 17.3521 6.52021 17.3259 6.55883C17.276 6.60263 17.2223 6.68193 17.2239 6.78383C17.2361 6.96335 17.268 7.14716 17.2802 7.3267C17.2844 7.35072 17.2889 7.37462 17.2932 7.39865C17.2739 7.37403 17.2571 7.35482 17.2474 7.34502C16.8975 6.9774 17.4082 7.28493 17.1807 7.00098C16.9883 6.78973 16.932 6.72251 16.7674 6.59547C16.6848 6.5421 16.6349 6.44013 16.6078 6.61379C16.597 6.76635 16.5858 6.94302 16.596 7.07164C16.5954 7.14311 16.6694 7.27766 16.7334 7.35681C16.9668 7.64361 17.2052 7.94878 17.445 8.26724C17.4954 8.91673 17.5089 9.51209 17.5601 10.1627C17.5528 10.4409 17.4672 10.8105 17.3861 10.8455C17.3861 10.8455 17.2622 10.9166 17.1794 10.8376C17.1192 10.8134 16.8786 10.436 16.8786 10.436C16.7554 10.3231 16.6732 10.3554 16.5855 10.436C16.3438 10.6695 16.2345 11.1067 16.0702 11.408C16.0278 11.4752 15.9085 11.5324 15.7759 11.4027C15.439 10.9424 15.636 10.2873 15.594 10.4557C15.294 10.7938 15.4269 11.3542 15.4946 11.4747C15.5936 11.6726 15.6736 11.7993 15.8661 11.8972C16.0415 12.0263 16.178 11.9457 16.2533 11.8553C16.4298 11.6725 16.4321 11.2049 16.5149 11.1124C16.573 10.9424 16.7186 10.9716 16.7896 11.0469C16.8584 11.1459 16.9397 11.2103 17.0408 11.2641C17.2054 11.4093 17.4018 11.4356 17.5954 11.3033C17.7277 11.2291 17.8136 11.1327 17.891 10.9423C17.9742 10.72 17.9331 9.555 17.9146 8.9069C18.0389 9.082 18.1616 9.26089 18.2835 9.4419C18.337 10.0108 18.3613 10.5711 18.3436 11.1084C18.331 11.2152 18.7165 10.7894 18.7138 10.5878C18.7121 10.4113 18.7142 10.2513 18.7138 10.1024C18.9008 10.4009 19.0817 10.7044 19.2528 11.0116C19.3588 10.9554 19.3224 10.3553 19.2554 10.2725C19.0763 9.97202 18.847 9.6473 18.6694 9.39606C18.6343 9.07899 18.5865 8.70489 18.5647 8.59028C18.5308 8.41156 18.4969 8.1431 18.4457 7.931C18.4316 7.84817 18.3892 7.58363 18.4025 7.55819C18.4234 7.499 18.5023 7.56008 18.5412 7.49148C18.5994 7.42806 18.3395 6.75484 18.2076 6.56271C18.1602 6.47659 18.0744 6.50639 17.9682 6.64642C17.8697 6.73857 17.9058 6.94879 17.9434 7.14873C18.041 7.65833 18.1282 8.1773 18.1971 8.69492C18.0695 8.50512 17.9137 8.27546 17.7602 8.05398C17.7561 8.03262 17.7406 7.95434 17.7406 7.95326C17.7406 7.9441 17.7195 7.53638 17.7014 7.43919C17.6982 7.39974 17.6888 7.38838 17.7301 7.3934C17.774 7.43028 17.7799 7.43226 17.8073 7.44442C17.8516 7.45252 17.8903 7.37769 17.8636 7.30838C17.7266 7.05586 17.5897 6.80222 17.4528 6.54968C17.4363 6.53346 17.4179 6.51636 17.3966 6.51305ZM4.64922 6.52613C4.57336 6.52396 4.48966 6.57099 4.52234 6.66217C4.50331 6.71187 4.67083 6.87988 4.70024 6.97219C4.72661 7.03792 4.67408 7.24959 4.72902 7.26913C4.77952 7.29103 4.84907 7.1226 4.87552 6.96696C4.89016 6.88169 4.87909 6.58988 4.68062 6.53003C4.67045 6.52773 4.66006 6.52644 4.64922 6.52613ZM19.1706 6.5278C19.1533 6.52952 19.1322 6.55747 19.0999 6.62591C19.0223 6.75308 18.9956 6.98077 19.0267 7.18184C19.2136 8.44611 19.3525 9.67033 19.3812 10.7909C19.3651 10.8973 19.3604 10.9538 19.3105 11.0878C19.2002 11.2293 19.0785 11.4066 18.9639 11.492C18.8493 11.5775 18.6054 11.6589 18.5257 11.7223C18.2727 11.8685 18.2714 12.0367 18.476 12.0427C18.8285 12.0018 19.2456 11.9729 19.5329 11.5391C19.6098 11.4176 19.7003 11.0881 19.7043 10.8864C19.7311 9.70399 19.6891 8.54788 19.512 7.69333C19.5006 7.61008 19.4639 7.41875 19.478 7.39378C19.5008 7.33526 19.6161 7.39963 19.6572 7.33229C19.7174 7.27078 19.3589 6.81173 19.2333 6.61546C19.2083 6.56616 19.1928 6.5256 19.1706 6.5278ZM15.4739 6.54743C15.4593 6.54994 15.4378 6.57209 15.398 6.62461C15.2996 6.94657 15.2649 7.2095 15.3025 7.40946C15.5555 8.72945 15.8146 9.93202 15.7735 11.1885C15.8934 11.1893 16.0321 10.9141 16.0913 10.6418C16.1238 10.2666 16.0697 10.0382 16.0599 9.81766C16.0502 9.59712 15.8103 7.80784 15.7617 7.64099C15.703 7.32548 15.995 7.59948 15.9631 7.41599C15.8622 7.18466 15.6103 6.8478 15.5315 6.64683C15.5018 6.59301 15.4982 6.54324 15.4739 6.54743ZM6.47294 6.57228C6.44185 6.57766 6.41186 6.60328 6.40099 6.64553C6.39416 6.67321 6.41297 6.71925 6.38791 6.73318C6.37352 6.74769 6.31892 6.73794 6.32119 6.66123C6.32119 6.6368 6.30326 6.61131 6.29242 6.59582C6.28153 6.58869 6.27418 6.58667 6.25448 6.58667C6.23047 6.58764 6.23102 6.59397 6.21785 6.61414C6.21199 6.63465 6.20446 6.65474 6.20446 6.67818C6.20146 6.70548 6.19053 6.71473 6.17045 6.71873C6.148 6.71873 6.15332 6.72118 6.13513 6.70958C6.12433 6.69776 6.11158 6.69312 6.11158 6.67295C6.11158 6.65207 6.1061 6.61873 6.09981 6.60493C6.09028 6.59236 6.07521 6.58581 6.05795 6.58138C5.96391 6.58172 5.95706 6.68979 5.96246 6.73051C5.95542 6.73819 5.95193 6.92972 6.08019 6.98297C6.25238 7.06507 6.57526 7.03036 6.56157 6.75274C6.56157 6.72819 6.55617 6.64573 6.55372 6.62324C6.53615 6.58231 6.50371 6.56684 6.47262 6.57222L6.47294 6.57228ZM8.78306 6.5749C8.72355 6.57793 8.67102 6.59498 8.62609 6.61806C8.51196 6.72734 8.4852 6.90252 8.57507 7.0118C8.66253 7.0531 8.7498 7.14114 8.69149 7.1897C8.44415 7.45387 7.80043 7.89532 7.76799 7.97585C7.76774 7.97651 7.76682 7.97787 7.76669 7.97847C7.7666 7.97905 7.76669 7.98056 7.76669 7.98108C7.76671 7.98134 7.76664 7.98216 7.76669 7.98239C7.76689 7.98306 7.76758 7.98447 7.76799 7.98501C7.76816 7.98517 7.76911 7.98616 7.7693 7.98631C7.76951 7.98644 7.77037 7.98619 7.7706 7.98631C7.77085 7.98644 7.77163 7.98753 7.77191 7.98762C7.7722 7.9877 7.77288 7.98754 7.77321 7.98762C7.7733 7.9877 7.77441 7.98883 7.77452 7.98892C7.80723 8.01087 8.21002 8.01035 8.2546 7.99023C8.25494 7.99006 8.25564 7.9891 8.25591 7.98892C8.25603 7.98884 8.25711 7.98901 8.25722 7.98892C8.2573 7.98884 8.25713 7.98771 8.25722 7.98762C8.39564 7.93661 9.05254 7.18577 9.05254 7.18577C9.01849 7.15661 8.98713 7.13513 8.95312 7.10597C8.91667 7.07442 8.92034 7.04339 8.95312 7.01179C9.11581 6.91711 9.06426 6.70881 8.97928 6.61413C8.90884 6.58255 8.84256 6.57186 8.78306 6.5749ZM14.8212 6.57751C14.8039 6.57923 14.7829 6.60587 14.7506 6.67431C14.673 6.80147 14.6202 7.02292 14.6263 7.23024C14.7945 8.39451 14.8461 9.41336 14.956 10.5777C14.9649 10.6903 14.9484 10.8539 14.8736 10.9191C14.5967 11.2082 14.1975 11.5647 13.763 11.7288C13.7162 11.7813 13.8792 12.005 14.09 12.0048C14.4425 11.9639 14.7523 11.766 15.0397 11.2448C15.1165 11.1233 15.2516 10.8631 15.2555 10.6614C15.2824 9.479 15.1959 8.55969 15.0188 7.70509C15.0074 7.62185 15.0152 7.52339 15.0292 7.49841C15.0521 7.47116 15.1295 7.49904 15.1705 7.4317C15.2308 7.37018 15.0096 6.86011 14.884 6.66383C14.859 6.61454 14.8435 6.57531 14.8212 6.57751ZM5.46698 6.61309C5.41833 6.61878 5.37256 6.65839 5.35056 6.7112C5.34242 6.89794 5.34132 7.08458 5.36233 7.25667C5.44727 7.5585 5.47416 7.82398 5.51538 8.13311C5.52681 8.54714 5.27629 8.31221 5.28777 8.10695C5.34562 7.84034 5.33 7.42063 5.27861 7.31422C5.23786 7.20786 5.19066 7.1816 5.09155 7.19911C5.01287 7.1943 4.80959 7.41579 4.75275 7.78254C4.75276 7.78254 4.70541 7.97076 4.68473 8.13835C4.65693 8.32774 4.53146 8.46187 4.44404 8.11218C4.36848 7.85802 4.32204 7.2318 4.19551 7.37835C4.15926 7.86731 4.11623 8.72768 4.53168 8.81596C5.0342 8.86427 4.75661 7.96647 4.9385 7.80347C4.97289 7.72293 5.03661 7.7215 5.04185 7.82309V8.58573C5.03725 8.83364 5.2004 8.90731 5.32701 8.95853C5.45878 8.94836 5.54614 8.95196 5.59779 9.08018C5.61838 9.51979 5.63999 9.96048 5.66058 10.4C5.66058 10.4 5.9652 10.4876 5.97975 9.65834C5.99435 9.17143 5.8828 8.76285 5.94836 8.66812C5.95068 8.57505 6.06998 8.57044 6.15242 8.6158C6.28376 8.70845 6.34204 8.82247 6.54616 8.77669C6.85677 8.69113 7.04386 8.54036 7.04847 8.30185C7.03032 8.07519 7.0041 7.8483 6.90589 7.62163C6.9196 7.58041 6.84643 7.47318 6.8601 7.43196C6.91592 7.51938 7.00037 7.51213 7.01969 7.43196C6.96682 7.25775 6.88452 7.09084 6.75153 7.0186C6.64162 6.92178 6.48079 6.94225 6.42189 7.14418C6.39459 7.37687 6.50622 7.65264 6.67566 7.87801C6.71165 7.96607 6.76199 8.11252 6.73976 8.24428C6.64959 8.29571 6.5602 8.27431 6.48467 8.19457C6.48468 8.19457 6.23745 8.00949 6.23745 7.96827C6.30305 7.54822 6.25158 7.50012 6.21521 7.38354C6.18981 7.22263 6.11355 7.17166 6.0517 7.06175C5.98985 6.99619 5.90595 6.99619 5.86595 7.06175C5.75667 7.25119 5.80794 7.65791 5.88688 7.84008C5.94392 8.00762 6.0314 8.11216 5.99022 8.11216C5.9563 8.20684 5.88556 8.18482 5.83456 8.07554C5.76173 7.84969 5.74691 7.51308 5.74691 7.36134C5.72505 7.17321 5.70069 6.77133 5.57686 6.66937C5.54382 6.62436 5.50482 6.60867 5.46698 6.61309ZM7.23159 6.61571C7.20666 6.61886 7.17909 6.63306 7.14657 6.64056C7.03974 6.67457 6.93973 6.76692 6.97128 6.94666C7.09756 7.71402 7.17987 8.29967 7.30615 9.06707C7.32556 9.15694 7.25023 9.2754 7.15311 9.26329C6.98797 9.15156 6.94699 8.92529 6.6652 8.93495C6.4612 8.9374 6.22857 9.15938 6.19952 9.37317C6.16551 9.54308 6.1534 9.72731 6.19952 9.87548C6.34289 10.0479 6.51462 10.0295 6.6652 9.9906C6.78903 9.93963 6.89092 9.81759 6.93467 9.84671C6.93479 9.84683 6.93587 9.84654 6.93597 9.84671C6.9361 9.84687 6.93585 9.84784 6.93597 9.84801C6.96298 9.89521 6.93343 10.2944 6.35254 10.6028C5.99556 10.7631 5.71143 10.8014 5.55852 10.5099C5.4638 10.3278 5.56541 9.63404 5.33222 9.79436C4.64259 11.572 6.9479 11.8201 7.20541 9.86761C7.22209 9.81253 7.27289 9.75726 7.30875 9.77081C7.32449 9.77751 7.33889 9.79888 7.34407 9.83883C7.29061 11.6068 5.56062 11.7279 5.26682 11.1718C5.19399 11.0407 5.17208 10.7489 5.16478 10.574C5.15147 10.4682 5.12492 10.4072 5.09415 10.383C5.02405 10.3304 4.92986 10.4677 4.90971 10.7061C4.88055 10.898 4.88878 10.9506 4.88878 11.1352C4.98105 12.5316 7.20727 11.9316 7.56906 10.7781C7.74816 10.1817 7.56541 9.73189 7.62531 9.67667C7.62583 9.67624 7.62737 9.67574 7.62792 9.67537C7.62849 9.67503 7.62993 9.67435 7.63054 9.67406C7.63116 9.67381 7.63249 9.67296 7.63316 9.67276C7.63519 9.67221 7.63862 9.67148 7.641 9.67145C7.862 9.90949 8.17211 9.70169 8.24009 9.61913C8.26925 9.57782 8.34217 9.55132 8.39314 9.60474C8.56553 9.72865 8.86769 9.67024 8.93078 9.45169C8.96723 9.23799 8.99804 9.01799 9.00534 8.78981C8.89304 8.82468 8.80242 8.85079 8.76595 8.88923C8.75727 8.89872 8.75084 8.90924 8.74895 8.92062C8.7392 8.98379 8.72991 9.04714 8.72017 9.1103C8.71913 9.11552 8.71745 9.12034 8.71494 9.12469C8.71015 9.13244 8.70224 9.13959 8.69401 9.14431C8.65431 9.16598 8.58508 9.15359 8.58151 9.09591C8.5281 8.85306 8.30827 8.82147 8.17469 9.19794C8.08482 9.27076 7.92096 9.28498 7.90391 9.1757C7.92577 8.92315 7.82401 8.88925 7.62006 9.00827C7.55449 8.50801 7.48945 8.0304 7.42384 7.53014C7.50886 7.52769 7.58682 7.58933 7.66453 7.4922C7.58043 7.23064 7.40246 6.69843 7.30219 6.64849C7.3014 6.64812 7.30035 6.64749 7.29957 6.64719C7.29502 6.64172 7.28964 6.63669 7.28519 6.6328C7.28334 6.63123 7.28048 6.62889 7.27865 6.62756C7.27681 6.62629 7.27394 6.62469 7.2721 6.62364C7.26808 6.62143 7.26304 6.61963 7.25902 6.61841C7.24988 6.61582 7.241 6.6146 7.23155 6.61579L7.23159 6.61571ZM14.1107 6.61963C14.0225 6.61701 13.9249 6.67261 13.9629 6.78314C13.9408 6.84343 14.1525 7.04794 14.1866 7.15987C14.248 7.33185 14.1397 7.49589 14.2036 7.5196C14.2624 7.54614 14.3442 7.34206 14.375 7.15333C14.4104 7.00077 14.3016 6.68811 14.1473 6.62357C14.1355 6.62078 14.1233 6.62 14.1107 6.61963ZM8.7515 6.808C8.79167 6.8039 8.84022 6.84082 8.86399 6.89302C8.88935 6.94871 8.87663 7.00191 8.83521 7.01206C8.7938 7.0222 8.74023 6.98534 8.71487 6.92965C8.68951 6.87396 8.70223 6.81945 8.74365 6.8093C8.74623 6.80867 8.74882 6.80827 8.7515 6.808ZM18.693 7.06569C18.6126 7.06287 18.5249 7.12394 18.5596 7.24359C18.5394 7.30886 18.7313 7.53054 18.7624 7.65172C18.7903 7.73795 18.7198 8.01588 18.7781 8.04153C18.8317 8.07026 18.9071 7.84951 18.935 7.64517C18.9506 7.53333 18.8677 7.14081 18.727 7.07091C18.7163 7.0679 18.7045 7.06609 18.693 7.06569ZM13.1965 7.20173C13.2039 7.23453 13.2112 7.26755 13.2161 7.30115C13.2326 7.37363 13.2468 7.44564 13.2619 7.51698C13.1984 7.42955 13.1459 7.35891 13.1233 7.33385C12.9796 7.1631 13.1265 7.22172 13.1965 7.20173ZM14.4628 7.82439C14.4317 7.82977 14.4017 7.85669 14.3908 7.89894C14.384 7.92662 14.4041 7.97136 14.379 7.98528C14.3646 7.99979 14.3087 7.99135 14.311 7.91464C14.311 7.89021 14.2931 7.86342 14.2822 7.84793C14.2713 7.8408 14.264 7.83877 14.2443 7.83877C14.2203 7.83974 14.2208 7.84607 14.2077 7.86624C14.2021 7.88679 14.1946 7.90705 14.1946 7.93033C14.1916 7.95763 14.182 7.96688 14.1619 7.97089C14.1394 7.97089 14.1434 7.97333 14.1253 7.96173C14.1145 7.94992 14.1017 7.94527 14.1017 7.9251C14.1017 7.90422 14.0962 7.87088 14.0899 7.85708C14.0804 7.84451 14.0653 7.83927 14.0481 7.83484C13.954 7.83518 13.9485 7.94194 13.9539 7.98266C13.9469 7.99034 13.9421 8.18318 14.0703 8.23643C14.2425 8.31853 14.5667 8.28251 14.553 8.0049C14.553 7.98034 14.5463 7.89788 14.5438 7.87539C14.5263 7.83447 14.4938 7.819 14.4628 7.82439ZM8.68117 7.88194C8.65994 7.87978 8.63211 7.88757 8.60007 7.9068C8.4478 7.98915 8.38884 8.23346 8.48365 8.37641C8.57221 8.50231 8.71223 8.4562 8.73088 8.4562C8.88006 8.47485 8.96895 8.17627 8.96895 8.17627C8.96895 8.17627 8.97344 8.09232 8.79628 8.25083C8.72173 8.2648 8.7116 8.23787 8.69294 8.19589C8.67742 8.11822 8.68075 8.03946 8.71649 7.96174C8.733 7.91515 8.71657 7.88555 8.68117 7.88194ZM16.8542 7.91988C16.7696 7.91577 16.6797 7.97051 16.6566 8.08601C16.657 8.15415 16.6874 8.19159 16.6815 8.25344C16.6727 8.2888 16.6362 8.31205 16.5494 8.27045C16.563 8.25796 16.4931 8.15926 16.4931 8.15926C16.4254 8.118 16.3349 8.1615 16.276 8.19981C16.2436 8.25871 16.2196 8.35967 16.2564 8.46274C16.3536 8.64243 16.6872 8.94906 16.8463 8.95199C16.8493 8.78997 16.865 8.57452 16.8738 8.44051C16.8775 8.38992 16.8894 8.33417 16.9379 8.32147C16.9863 8.30882 17.0704 8.37021 17.0713 8.31755C17.0625 8.21448 17.0419 8.06238 16.9837 7.99053C16.9538 7.94634 16.9049 7.92234 16.8542 7.91988ZM10.0889 8.48368C10.0866 8.4845 10.0844 8.48642 10.0824 8.4876C10.0813 8.48821 10.0795 8.48948 10.0784 8.49021C10.0616 8.50285 10.0417 8.53202 9.99733 8.56347C9.92244 8.64865 9.90901 8.70797 9.91361 8.87872C9.91787 8.89678 10.0558 9.28023 10.1726 9.54976C10.2514 9.82991 10.3243 10.1507 10.2707 10.4537C10.0863 10.8542 9.71555 11.2134 9.35769 11.4086C9.17537 11.4669 9.01791 11.4471 8.97573 11.4073C8.97539 11.4069 8.97472 11.4063 8.97442 11.4059C8.86972 11.3355 8.86731 11.2102 8.8737 11.1888C8.8737 11.1887 8.87371 11.1876 8.8737 11.1875C8.87395 11.1872 8.87477 11.1864 8.87501 11.1862C9.17697 10.9759 9.5219 10.8056 9.79197 10.2378C9.87171 10.0208 9.89606 9.89055 9.81683 9.55502C9.78594 9.43 9.74778 9.32712 9.66247 9.23846C9.66268 9.23821 9.66356 9.23739 9.66378 9.23716C9.71518 9.21256 9.84855 9.31082 9.86915 9.24893C9.83759 9.08873 9.72908 8.87366 9.60622 8.76362C9.49863 8.6659 9.3816 8.65459 9.28312 8.74399C9.1722 8.80572 9.1486 9.02741 9.20202 9.22144C9.26134 9.36751 9.4215 9.39313 9.53558 9.68712C9.53558 9.68741 9.53557 9.68833 9.53558 9.68843C9.53796 9.70686 9.57474 9.90787 9.51727 9.98929C9.47063 10.1347 8.87163 10.6071 8.82919 10.6355C8.82872 10.636 8.82572 10.6377 8.82527 10.6381C8.82502 10.6384 8.82418 10.6392 8.82396 10.6394C8.82384 10.6395 8.82293 10.6405 8.82266 10.6407C8.82253 10.6409 8.82147 10.6419 8.82135 10.642C8.82122 10.642 8.82019 10.6421 8.82004 10.642C8.81996 10.642 8.81903 10.642 8.81874 10.642C8.81849 10.6418 8.81766 10.641 8.81743 10.6407C8.81744 10.6406 8.81743 10.6395 8.81743 10.6394C8.81718 10.639 8.81636 10.6373 8.81613 10.6368C8.81432 10.625 8.81749 10.595 8.81613 10.5466C8.81219 10.4581 8.84882 10.2578 8.84621 10.2235C8.84621 10.2233 8.84621 10.2223 8.84621 10.2222C8.84596 10.2219 8.84515 10.2211 8.84491 10.2208C8.84491 10.2207 8.8449 10.2197 8.84491 10.2195C8.84461 10.2195 8.84364 10.2195 8.8436 10.2195C8.6456 10.3474 8.58021 10.7393 8.54405 10.8553C8.04278 11.2016 7.47354 11.4593 7.1457 11.8102C6.97496 12.0768 8.32211 11.504 8.47866 11.4348C8.48001 11.4358 8.48135 11.4374 8.48259 11.4387C8.51234 11.4714 8.51489 11.5856 8.60424 11.6885C8.74427 11.8782 9.04192 11.995 9.33154 11.9227C9.81723 11.7471 10.0971 11.4161 10.382 11.0489C10.4227 10.9896 10.4865 10.943 10.5455 10.9887C10.7412 11.427 11.3057 11.7388 12.0354 11.771C12.2042 11.5656 12.1235 11.4647 12.055 11.4217C12.0339 11.4077 11.6921 11.2744 11.639 11.1418C11.6056 11.0183 11.6869 10.9088 11.8496 10.8265C12.3182 10.7699 12.7787 10.7069 13.2245 10.5636C13.229 10.4139 13.3172 10.1899 13.3762 10.0927C13.4172 10.0252 13.4435 10.0185 13.4534 10.009C13.4537 10.0086 13.4544 10.008 13.4547 10.0077C13.4548 10.0075 13.4559 10.0065 13.456 10.0063C13.4562 10.0061 13.4571 10.0053 13.4573 10.005C13.4573 10.0046 13.4573 10.0029 13.4573 10.0024C13.4576 9.99946 13.4573 9.99436 13.456 9.98934L13.3801 9.94487L11.885 9.93833C11.8665 9.93122 11.8528 9.92408 11.8444 9.9174C11.8438 9.91687 11.8424 9.91531 11.8418 9.91478C11.8415 9.91453 11.8407 9.91374 11.8405 9.91348C11.8402 9.91323 11.8394 9.91243 11.8392 9.91217C11.839 9.91171 11.8381 9.91001 11.8379 9.90955C11.8377 9.90943 11.8367 9.90839 11.8366 9.90825C11.8366 9.90812 11.8366 9.90708 11.8366 9.90694C11.8364 9.90682 11.8354 9.90577 11.8353 9.90564C11.8353 9.90551 11.8353 9.90447 11.8353 9.90433C11.8353 9.90421 11.8353 9.90316 11.8353 9.90302C11.8353 9.9029 11.8353 9.90186 11.8353 9.90172C11.8352 9.90151 11.8353 9.90061 11.8353 9.90041C11.8353 9.90033 11.8353 9.89938 11.8353 9.89911C11.8353 9.89898 11.8353 9.89794 11.8353 9.8978C11.8353 9.89767 11.8353 9.89663 11.8353 9.89649C11.8353 9.89637 11.8353 9.89533 11.8353 9.89519C11.8355 9.89494 11.8363 9.89412 11.8366 9.89388C11.8369 9.89319 11.8374 9.89195 11.8379 9.89127C11.8452 9.88143 11.8629 9.87216 11.885 9.8638C12.242 9.81515 12.8763 9.71118 12.9184 9.10117C12.9118 8.78342 12.7824 8.57537 12.3925 8.51773C12.1061 8.53988 11.9017 8.81699 11.9347 9.12209C11.921 9.20424 11.9625 9.36545 11.8784 9.38371C11.3289 9.43392 10.7291 9.77824 10.709 10.0247C10.7089 10.0246 10.7078 10.0247 10.7077 10.0247C10.7075 10.0249 10.7066 10.0257 10.7064 10.026C10.7059 10.0262 10.7044 10.0269 10.7038 10.0273C10.7033 10.0273 10.7016 10.0273 10.7011 10.0273C10.7003 10.0276 10.6981 10.0283 10.6972 10.0286C10.697 10.0286 10.6962 10.0286 10.6959 10.0286C10.6952 10.0286 10.6938 10.0286 10.6933 10.0286C10.693 10.0286 10.6923 10.0286 10.692 10.0286C10.6914 10.0286 10.6898 10.0286 10.6894 10.0286C10.688 10.0283 10.6854 10.0276 10.6841 10.0273C10.6484 10.0173 10.6024 9.95836 10.6096 9.87553C10.5887 9.44953 10.45 8.96748 10.2328 8.59624C10.1554 8.51876 10.1216 8.48737 10.0994 8.48374C10.0987 8.48366 10.0975 8.48377 10.0968 8.48374C10.0959 8.48374 10.0941 8.48375 10.0929 8.48374C10.0927 8.48375 10.0918 8.48372 10.0916 8.48374C10.0915 8.48374 10.0904 8.48375 10.0903 8.48374C10.0901 8.48378 10.0891 8.4837 10.089 8.48374L10.0889 8.48368ZM11.52 8.70867C11.4889 8.71405 11.4589 8.73967 11.448 8.78192C11.4412 8.8096 11.4613 8.85564 11.4363 8.86957C11.4219 8.88408 11.366 8.87563 11.3682 8.79893C11.3682 8.7745 11.3503 8.7477 11.3395 8.73222C11.3286 8.72509 11.3225 8.72306 11.3028 8.72306C11.2788 8.72403 11.2781 8.73036 11.2649 8.75053C11.2593 8.77108 11.2518 8.79134 11.2518 8.81462C11.2488 8.84192 11.2392 8.85117 11.2191 8.85517C11.1967 8.85517 11.202 8.85762 11.1838 8.84602C11.173 8.8342 11.1589 8.82956 11.1589 8.80939C11.1589 8.78851 11.1548 8.75517 11.1485 8.74137C11.1389 8.7288 11.1226 8.72356 11.1053 8.71913C11.0113 8.71947 11.0057 8.82623 11.0111 8.86694C11.0041 8.87462 10.9993 9.06747 11.1275 9.12072C11.2997 9.20282 11.7101 9.15448 11.6102 8.88918C11.6102 8.86463 11.6035 8.78217 11.6011 8.75968C11.5835 8.71876 11.5511 8.70329 11.52 8.70867ZM17.2953 8.94543C17.2909 8.94465 17.286 8.94496 17.2809 8.94674C17.2809 8.94674 16.4831 9.51431 16.4633 9.53406C16.3842 9.6044 16.4238 9.85172 16.4633 9.82315C16.5205 9.84513 17.3237 9.30083 17.3084 9.23712C17.3434 9.23918 17.3602 8.95714 17.2953 8.94543ZM12.2739 9.02957C12.3064 9.02612 12.3491 9.03716 12.3903 9.06096C12.4498 9.09541 12.4865 9.14743 12.4818 9.18524C12.4817 9.18626 12.482 9.18816 12.4818 9.18916C12.4816 9.19015 12.4795 9.19211 12.4792 9.19308C12.4789 9.19404 12.4783 9.19606 12.4779 9.197C12.4777 9.19762 12.4769 9.19901 12.4766 9.19962C12.4763 9.20022 12.4756 9.20164 12.4753 9.20223C12.4734 9.20543 12.4701 9.20878 12.4675 9.21139C12.4388 9.23813 12.3727 9.23432 12.3105 9.19831C12.2515 9.16418 12.215 9.11175 12.2189 9.07404C12.219 9.07301 12.22 9.07113 12.2202 9.07012C12.2212 9.06544 12.2231 9.06117 12.2255 9.05704C12.2263 9.05556 12.2271 9.05316 12.2281 9.0518C12.2283 9.05155 12.2292 9.05076 12.2294 9.0505C12.2311 9.04845 12.2338 9.0457 12.2359 9.04396C12.2454 9.03649 12.2589 9.03116 12.2739 9.02957ZM5.28715 9.17346C4.87376 9.18101 4.26839 9.71533 4.25244 10.0119C4.68865 9.80246 5.11712 9.60083 5.56054 9.38405C5.48898 9.27722 5.55621 9.18097 5.28715 9.17346ZM6.62664 9.35921C6.66717 9.35967 6.70991 9.37968 6.7326 9.43639C6.75302 9.48841 6.73356 9.54281 6.70905 9.56982C6.70893 9.57002 6.70918 9.57092 6.70905 9.57112C6.70868 9.57172 6.70815 9.57317 6.70775 9.57374C6.6904 9.59609 6.62948 9.58682 6.5861 9.58682C6.53361 9.5845 6.50773 9.57588 6.47621 9.53319C6.46115 9.48572 6.50702 9.43909 6.52723 9.40369C6.52744 9.40335 6.52833 9.40271 6.52854 9.40238C6.53073 9.39908 6.53432 9.39513 6.5377 9.39191C6.55339 9.37754 6.58054 9.3641 6.60964 9.36052C6.6153 9.35983 6.62086 9.35914 6.62664 9.35921ZM17.14 9.52372C17.0665 9.53278 16.9966 9.60229 17.0288 9.71339C17.0086 9.77866 17.1285 10.0069 17.1596 10.1281C17.1876 10.2143 17.1236 10.4582 17.1818 10.4839C17.2355 10.5126 17.3765 10.3391 17.3715 10.1215C17.387 10.0097 17.3316 9.59756 17.191 9.52762C17.1748 9.5231 17.1569 9.52162 17.14 9.52372ZM8.21101 9.92661C8.14605 9.93115 8.08807 9.96587 8.11421 10.0574C8.11029 10.1238 8.29777 10.2046 8.30912 10.3583C8.33591 10.4217 8.26904 10.6246 8.32481 10.6434C8.37603 10.6645 8.4471 10.5032 8.47394 10.353C8.48879 10.2708 8.40961 9.98319 8.27511 9.93186C8.25446 9.92742 8.23266 9.9251 8.21101 9.92661ZM10.8835 10.2916C10.8884 10.2912 10.8927 10.2916 10.8979 10.2916C10.8987 10.2916 10.8996 10.2916 10.9005 10.2916C11.067 10.3368 11.3126 10.3415 11.5258 10.3635C11.6994 10.3745 11.7852 10.5105 11.6226 10.5676C11.4621 10.6225 11.308 10.6654 11.3073 10.8972C11.3284 11.012 11.3239 11.0723 11.306 11.1C11.3046 11.1021 11.3023 11.1048 11.3008 11.1065C11.3006 11.1068 11.2997 11.1076 11.2995 11.1078C11.2992 11.108 11.2984 11.1089 11.2982 11.1091C11.2979 11.1093 11.2971 11.1102 11.2969 11.1104L11.2955 11.1117C11.2951 11.112 11.2934 11.1128 11.2929 11.113C11.2906 11.1145 11.2876 11.116 11.2851 11.117C11.2828 11.1177 11.2796 11.1179 11.2772 11.1183C11.2391 11.1239 11.1837 11.0875 11.1425 11.066C11.0436 10.9949 10.7661 10.8229 10.7265 10.4538C10.7209 10.3705 10.7832 10.2986 10.8835 10.2916ZM4.35596 10.5754C4.34555 10.5758 4.32473 10.6068 4.29709 10.6421C4.05116 11.0339 4.02929 11.6188 4.16498 11.7933C4.23708 11.8757 4.35597 11.912 4.4436 11.8861C4.59811 11.8191 4.66601 11.5062 4.62935 11.3917C4.57779 11.311 4.53693 11.2982 4.48546 11.3668C4.37673 11.5876 4.33149 11.4366 4.32195 11.3132C4.30528 11.0793 4.32794 10.8638 4.35334 10.6932C4.36687 10.6058 4.36637 10.5751 4.35596 10.5755L4.35596 10.5754ZM12.7345 11.0899C12.7162 11.0889 12.6967 11.0918 12.6769 11.1016C12.673 11.1016 12.5009 11.2181 12.4454 11.2992C12.4115 11.3249 12.4154 11.3473 12.4258 11.392C12.4521 11.4527 12.4986 11.4337 12.5513 11.4051C12.6213 11.3956 12.6552 11.4414 12.6495 11.5255C12.6171 11.6303 12.6638 11.6693 12.6638 11.6759C12.6638 11.6825 12.7312 11.7403 12.8103 11.6942C12.9773 11.6305 13.0814 11.5685 13.3152 11.5176C13.3766 11.5164 13.3731 11.3521 13.276 11.3463C13.1493 11.3526 13.0325 11.3591 12.9058 11.4588C12.8279 11.4768 12.8145 11.4293 12.7972 11.3868C12.7775 11.2813 12.8418 11.2069 12.8286 11.1278C12.8321 11.1313 12.7893 11.0928 12.7345 11.0899ZM18.0991 11.29C18.0681 11.291 18.0353 11.2953 17.9879 11.2992C17.9367 11.3101 17.9188 11.3325 17.9095 11.3947C17.9131 11.4889 17.9708 11.4842 18.0298 11.5215C18.064 11.565 18.0862 11.6044 18.0272 11.6759C17.9712 11.7272 17.9314 11.7554 17.8754 11.8067C17.849 11.8518 17.8326 11.921 17.9134 11.9427C18.0626 11.9847 18.4078 11.7604 18.4078 11.7557C18.4638 11.7137 18.4452 11.634 18.4405 11.634C18.4079 11.5967 18.3343 11.6191 18.2849 11.6131C18.2613 11.6131 18.184 11.6017 18.2208 11.5333C18.2514 11.4908 18.2628 11.4654 18.2836 11.413C18.3068 11.3617 18.2864 11.3271 18.2025 11.2992C18.1597 11.2914 18.1302 11.289 18.0991 11.29ZM15.858 15.8275C15.8577 15.8277 15.857 15.8286 15.8567 15.8288C15.6086 15.8925 15.6163 16.1501 15.7756 16.2631C13.1555 16.2631 9.13464 16.2187 8.27235 16.2187C7.78992 16.2187 6.26365 16.1611 6.23431 16.1611C6.56163 16.6398 7.03579 16.7373 7.65622 16.7471C8.81999 16.7471 14.2122 16.7327 15.7467 16.7327C15.6377 16.9264 15.7566 17.2381 15.8422 17.2952C15.8441 17.2964 15.847 17.2982 15.8488 17.2992C15.852 17.3008 15.8562 17.3023 15.8592 17.3031C15.8603 17.3033 15.8622 17.303 15.8632 17.3031C15.9648 17.327 16.0095 17.2535 16.0437 17.1997C16.2085 17.2143 17.1361 17.2277 17.221 17.1984C17.2213 17.1983 17.222 17.1972 17.2223 17.1971C17.2797 17.2816 17.3367 17.3615 17.446 17.3476C17.6372 17.3066 17.7878 17.2857 17.7926 16.8976C17.7926 16.8976 17.7731 16.2361 17.3387 16.2776C17.2359 16.2931 16.9476 16.322 16.9476 16.322C16.6139 16.2823 16.3691 16.2783 15.994 16.2645C16.0286 16.2205 16.0897 16.0425 16.0149 15.978C15.9954 15.9618 15.9663 15.9527 15.9259 15.9558C15.9257 15.9558 15.9249 15.9558 15.9246 15.9558C15.9241 15.9557 15.9226 15.9559 15.922 15.9558C15.9217 15.9557 15.921 15.9545 15.9207 15.9545C15.9196 15.9541 15.9178 15.9538 15.9168 15.9532C15.9148 15.9518 15.9121 15.9488 15.9103 15.9466C15.9098 15.946 15.9081 15.9446 15.9076 15.944C15.8887 15.9164 15.8783 15.8487 15.8658 15.8315C15.8656 15.8313 15.8646 15.8304 15.8645 15.8302C15.8643 15.8301 15.8633 15.829 15.8632 15.8289C15.8627 15.8286 15.861 15.8277 15.8606 15.8276C15.8604 15.8276 15.8594 15.8276 15.8592 15.8276C15.8591 15.8276 15.8581 15.8275 15.8579 15.8276L15.858 15.8275ZM16.0359 16.7733C16.0364 16.7731 16.0367 16.7735 16.0372 16.7733C16.4195 16.792 16.7786 16.7769 17.1609 16.7955C17.2215 16.847 17.1912 16.965 17.1517 16.9865C17.1499 16.9874 17.147 16.9887 17.1452 16.9891C17.1437 16.9895 17.1414 16.9891 17.1399 16.9891C17.1385 16.9891 17.1362 16.9895 17.1347 16.9891C17.0104 16.986 16.9385 16.9831 16.8142 16.98C16.814 16.9738 16.8133 16.9671 16.8116 16.9617C16.7822 16.8744 16.5688 16.8802 16.5186 16.9486C16.5179 16.9496 16.5166 16.9515 16.516 16.9525C16.5152 16.9539 16.514 16.9563 16.5134 16.9577C16.5126 16.9595 16.5113 16.9624 16.5107 16.9643C16.51 16.9669 16.5098 16.9707 16.5094 16.9734C16.5091 16.9766 16.5079 16.9806 16.5081 16.9839C16.3403 17.0041 16.1893 16.9783 16.0215 16.9721C15.9723 16.9108 15.978 16.7999 16.0359 16.7733Z" fill="white"/>
</g>
</g>
<defs>
<clipPath id="clip0_679_38813">
<rect width="24" height="24" fill="white"/>
</clipPath>
</defs>
</svg>
