<svg width="27" height="28" viewBox="0 0 27 28" fill="none" xmlns="http://www.w3.org/2000/svg">
<rect x="0.020752" y="0.520508" width="26.9583" height="26.9583" rx="3" fill="white"/>
<path d="M21.0662 7.74528L21.1541 7.69765C21.1761 7.73828 21.1914 7.79317 21.2032 7.85241C21.2156 7.91388 21.2258 7.9888 21.2344 8.0748C21.2515 8.24695 21.2624 8.46962 21.2678 8.73001C21.2785 9.25115 21.2672 9.92953 21.238 10.6697C21.1795 12.1498 21.049 13.8832 20.8776 15.1098L20.8776 15.1103C20.5892 17.093 20.1547 18.3892 19.4384 19.326C18.9204 20.0104 18.5747 20.2371 15.456 22.0832C15.4559 22.0833 15.4559 22.0833 15.4558 22.0833L13.6769 23.1435L13.6249 23.1745L13.5734 23.1429L13.017 22.8019C12.7108 22.6217 11.6338 21.9935 10.6104 21.401C10.1049 21.1121 9.58168 20.7829 9.14638 20.4897C8.71316 20.1978 8.36083 19.9377 8.2014 19.7876L8.20134 19.7877L8.19845 19.7847C7.37048 18.9383 6.80771 17.6766 6.46437 15.8876L6.46436 15.8876L6.46421 15.8867C6.3101 15.0437 6.15714 13.1368 6.06956 11.3784C6.02571 10.498 5.99812 9.65227 5.99502 8.99229C5.99347 8.66245 5.99803 8.37783 6.00987 8.158C6.01579 8.04816 6.02358 7.95326 6.03356 7.87636C6.04311 7.8028 6.05554 7.73807 6.07362 7.69199C6.13474 7.5228 6.27562 7.42352 6.52387 7.35259C6.77004 7.28225 7.14756 7.23224 7.72144 7.17843L7.72303 7.1783C9.56156 7.03551 11.161 6.51817 12.2753 5.75763L12.2755 5.75748C12.5297 5.58499 12.7937 5.42563 13.0179 5.30895C13.1299 5.25067 13.2334 5.20226 13.3218 5.16817C13.4044 5.13627 13.4848 5.11242 13.5489 5.11124C13.6166 5.1059 13.7012 5.12725 13.7857 5.15662C13.8767 5.18826 13.9836 5.23513 14.0991 5.29231C14.3304 5.40683 14.6035 5.56624 14.8666 5.73861L14.8666 5.73858L14.8687 5.74003C16.0184 6.53593 17.6173 7.03546 19.4564 7.17829L19.4579 7.17843C20.0407 7.23223 20.4185 7.28224 20.6694 7.35494C20.9267 7.42948 21.066 7.53246 21.1544 7.69822L21.0662 7.74528ZM21.0662 7.74528C20.9224 7.4757 20.6169 7.38584 19.4487 7.278M21.0662 7.74528C21.2998 8.17661 21.1201 12.6517 20.7786 15.0959C20.491 17.0729 20.0597 18.3489 19.3588 19.2655C18.8556 19.9304 18.5321 20.1461 15.4049 21.9973L19.4487 7.278M19.4487 7.278C17.5975 7.13423 15.98 6.631 14.8118 5.82225L19.4487 7.278ZM14.8882 20.185L14.8885 20.1848C16.3739 19.3476 17.2103 18.8283 17.7359 18.305C18.2542 17.7889 18.473 17.2655 18.7048 16.401C19.0078 15.1702 19.3307 12.1425 19.3307 10.2614V9.06739H18.9275C18.4624 9.06739 17.6323 8.88813 16.7966 8.64326C15.9588 8.39777 15.0979 8.08115 14.5677 7.79789C14.5674 7.79777 14.5672 7.79765 14.567 7.79753L14.5287 7.77776C14.2647 7.64153 14.0205 7.51545 13.8334 7.42401C13.7349 7.37592 13.6541 7.33829 13.5953 7.31397C13.5656 7.3017 13.5439 7.29378 13.5294 7.28954C13.5281 7.28917 13.527 7.28884 13.526 7.28856C13.5242 7.28918 13.5221 7.28998 13.5194 7.291C13.5067 7.29597 13.4887 7.30401 13.4652 7.31544C13.4184 7.33817 13.3556 7.37144 13.2809 7.41272C13.1317 7.49511 12.9395 7.60682 12.742 7.72354C11.7579 8.30665 10.0729 8.84962 8.76671 8.99484C8.76655 8.99486 8.76639 8.99487 8.76623 8.99489L7.81729 9.10942L7.92047 11.1903C7.92048 11.1904 7.92048 11.1905 7.92049 11.1906C8.04623 13.3999 8.22112 15.0014 8.48648 16.1609C8.75207 17.3215 9.10538 18.0256 9.57729 18.4546L9.57729 18.4546L9.57825 18.4555C9.70585 18.5746 9.98194 18.7725 10.3307 18.9997C10.6769 19.2253 11.0882 19.4757 11.4817 19.6993C12.2724 20.1306 13.0832 20.599 13.284 20.7267L13.2846 20.7271C13.3535 20.7717 13.4111 20.7964 13.4744 20.8046C13.5385 20.8128 13.6176 20.8051 13.7304 20.7696C13.9608 20.6971 14.3014 20.519 14.8882 20.185Z" fill="#3C78B9" stroke="#3C78B9" stroke-width="0.2"/>
</svg>
