<svg width="32" height="31" viewBox="0 0 32 31" fill="none" xmlns="http://www.w3.org/2000/svg">
<path d="M7.47788 5.84731L20.2348 2.36522L19.5592 0.999693C19.1172 0.112102 18.0391 -0.254434 17.1515 0.187565L5.73145 5.84731H7.47788Z" fill="white"/>
<path d="M24.1947 2.46582C24.0366 2.46582 23.8785 2.48738 23.7204 2.5305L20.7234 3.34982L11.5708 5.84729H21.9596H26.4874L25.9268 3.79182C25.7112 2.99047 24.9853 2.46582 24.1947 2.46582Z" fill="white"/>
<path d="M28.3598 7.10504H27.9501H27.3932H26.8362H22.5851H6.96418H4.91589H3.19102H2.8712H1.80034C1.23257 7.10504 0.725884 7.36737 0.395284 7.78062C0.244357 7.97107 0.129366 8.19027 0.0646828 8.43104C0.0251544 8.58196 0 8.74008 0 8.90179V9.11739V11.1657V28.9211C0 29.9129 0.804941 30.7178 1.79674 30.7178H28.3562C29.348 30.7178 30.1529 29.9129 30.1529 28.9211V23.9082H19.4911C17.8057 23.9082 16.4366 22.5391 16.4366 20.8537V19.2079V18.6509V18.0939V16.8578C16.4366 16.0313 16.7672 15.2803 17.3026 14.7305C17.777 14.2417 18.413 13.9111 19.1245 13.8285C19.2431 13.8141 19.3653 13.8069 19.4875 13.8069H28.6581H29.215H29.772H30.1529V8.90179C30.1565 7.90998 29.3516 7.10504 28.3598 7.10504Z" fill="white"/>
<path d="M31.4143 15.5245C31.2346 15.3592 31.0226 15.2335 30.7854 15.1508C30.6021 15.0898 30.4081 15.0538 30.2033 15.0538H30.1566H30.1206H29.5636H27.5549H19.4911C18.4992 15.0538 17.6943 15.8587 17.6943 16.8506V17.7453V18.3023V18.8593V20.8501C17.6943 21.8419 18.4992 22.6468 19.4911 22.6468H30.1566H30.2033C30.4081 22.6468 30.6021 22.6109 30.7854 22.5498C31.0226 22.4708 31.2346 22.3414 31.4143 22.1761C31.7736 21.8491 32 21.3747 32 20.8501V16.8506C32 16.3259 31.7736 15.8515 31.4143 15.5245ZM23.2427 19.2079C23.2427 19.7038 22.8402 20.1062 22.3443 20.1062H21.7478C21.2519 20.1062 20.8494 19.7038 20.8494 19.2079V18.6114C20.8494 18.3239 20.9824 18.0687 21.1944 17.907C21.3489 17.7884 21.5394 17.713 21.7478 17.713H21.8987H22.3443C22.8402 17.713 23.2427 18.1154 23.2427 18.6114V19.2079Z" fill="white"/>
</svg>
