<svg width="44" height="44" viewBox="0 0 32 32" fill="none" xmlns="http://www.w3.org/2000/svg">
<path d="M16 32C24.8366 32 32 24.8366 32 16C32 7.16344 24.8366 0 16 0C7.16344 0 0 7.16344 0 16C0 24.8366 7.16344 32 16 32Z" fill="url(#paint0_linear_1_15475)"/>
<path d="M31.85 16C31.85 24.7537 24.7537 31.85 16 31.85C7.24629 31.85 0.15 24.7537 0.15 16C0.15 7.24629 7.24629 0.15 16 0.15C24.7537 0.15 31.85 7.24629 31.85 16Z" fill="url(#paint1_linear_1_15475)" stroke="url(#paint2_linear_1_15475)" stroke-width="0.3"/>
<path d="M16 28.7127C23.021 28.7127 28.7127 23.021 28.7127 16C28.7127 8.97891 23.021 3.28723 16 3.28723C8.97891 3.28723 3.28723 8.97891 3.28723 16C3.28723 23.021 8.97891 28.7127 16 28.7127Z" fill="url(#paint3_linear_1_15475)"/>
<path d="M16 27.9855C22.6194 27.9855 27.9854 22.6194 27.9854 16C27.9854 9.38066 22.6194 4.01459 16 4.01459C9.3806 4.01459 4.01453 9.38066 4.01453 16C4.01453 22.6194 9.3806 27.9855 16 27.9855Z" stroke="url(#paint4_linear_1_15475)" stroke-width="2"/>
<g filter="url(#filter0_i_1_15475)">
<path d="M16.0001 29.8182C23.6316 29.8182 29.8182 23.6316 29.8182 16C29.8182 8.36843 23.6316 2.18182 16.0001 2.18182C8.36849 2.18182 2.18188 8.36843 2.18188 16C2.18188 23.6316 8.36849 29.8182 16.0001 29.8182Z" fill="#1EAC89"/>
</g>
<g filter="url(#filter1_i_1_15475)">
<path d="M16 29.4346C23.4198 29.4346 29.4346 23.4198 29.4346 16C29.4346 8.5803 23.4198 2.56543 16 2.56543C8.5803 2.56543 2.56543 8.5803 2.56543 16C2.56543 23.4198 8.5803 29.4346 16 29.4346Z" fill="url(#paint5_linear_1_15475)"/>
</g>
<path d="M16 29.4346C23.4198 29.4346 29.4346 23.4198 29.4346 16C29.4346 8.5803 23.4198 2.56543 16 2.56543C8.5803 2.56543 2.56543 8.5803 2.56543 16C2.56543 23.4198 8.5803 29.4346 16 29.4346Z" stroke="url(#paint6_linear_1_15475)" stroke-width="0.5"/>
<g clip-path="url(#clip0_1_15475)">
<path d="M14.1572 8.84387H13.3519V12.3515H14.1572V8.84387Z" fill="#187059"/>
<path d="M13.4698 8.84387H8.85583V12.3544H13.4698V8.84387Z" fill="white"/>
<path d="M14.1572 17.9005H13.3519V19.2965H14.1572V17.9005Z" fill="#187059"/>
<mask id="mask0_1_15475" style="mask-type:luminance" maskUnits="userSpaceOnUse" x="8" y="15" width="7" height="3">
<path d="M13.352 15.2207H14.1573C11.122 15.4031 8.93076 15.9363 8.93076 16.5606C8.93076 17.185 11.1298 17.7251 14.1573 17.9005H13.352C10.3167 17.7181 8.12549 17.185 8.12549 16.5606C8.12549 15.9363 10.3245 15.4031 13.352 15.2207Z" fill="white"/>
</mask>
<g mask="url(#mask0_1_15475)">
<path d="M13.352 15.2207H14.1572C11.5711 15.375 9.58887 15.7819 9.06235 16.287H8.25708C8.7836 15.7819 10.7658 15.375 13.352 15.2207Z" fill="#187059"/>
<path d="M8.26489 16.287H9.07016C9.07016 16.287 9.03145 16.3221 9.01596 16.3431H8.21069C8.21069 16.3431 8.24167 16.308 8.26489 16.287Z" fill="#187059"/>
<path d="M8.21066 16.3431H9.01593C9.01593 16.3431 8.9927 16.3712 8.98496 16.3852H8.17969C8.17969 16.3852 8.20292 16.3572 8.21066 16.3431Z" fill="#187059"/>
<path d="M8.17967 16.3923H8.98494C8.98494 16.3923 8.96945 16.4133 8.96945 16.4203H8.16418C8.16418 16.4203 8.17193 16.3993 8.17967 16.3923Z" fill="#187059"/>
<path d="M8.16417 16.4203H8.96944C8.96944 16.4203 8.96169 16.4413 8.95395 16.4483H8.14868C8.14868 16.4483 8.15642 16.4273 8.16417 16.4203Z" fill="#187059"/>
<path d="M8.14873 16.4554H8.954C8.954 16.4554 8.954 16.4764 8.94626 16.4834H8.14099C8.14099 16.4834 8.14099 16.4624 8.14873 16.4554Z" fill="#187059"/>
<path d="M8.13318 16.4835H8.93845C8.93845 16.4835 8.93845 16.4975 8.93845 16.5115H8.13318C8.13318 16.5115 8.13318 16.4975 8.13318 16.4835Z" fill="#187059"/>
<path d="M8.13318 16.5045H8.93845C8.93845 16.5045 8.93845 16.5185 8.93845 16.5326H8.13318C8.13318 16.5326 8.13318 16.5185 8.13318 16.5045Z" fill="#187059"/>
<path d="M8.12549 16.5325H8.93076C8.93076 16.5325 8.93076 16.5466 8.93076 16.5606H8.12549C8.12549 16.5606 8.12549 16.5466 8.12549 16.5325Z" fill="#187059"/>
<path d="M8.12549 16.5606H8.93076C8.93076 16.5746 8.93076 16.5887 8.93076 16.5957H8.12549C8.12549 16.5957 8.12549 16.5676 8.12549 16.5606Z" fill="#187059"/>
<path d="M8.12549 16.5957H8.93076C8.93076 16.5957 8.93076 16.6238 8.9385 16.6378H8.13323C8.13323 16.6378 8.13323 16.6097 8.12549 16.5957Z" fill="#187059"/>
<path d="M8.13318 16.6378H8.93845C8.95393 16.7009 9.00039 16.764 9.06234 16.8272H8.25707C8.19512 16.764 8.14866 16.7009 8.13318 16.6378Z" fill="#187059"/>
<path d="M8.26489 16.8272H9.07016C9.07016 16.8272 9.13211 16.8833 9.17082 16.9114H8.36555C8.36555 16.9114 8.29586 16.8553 8.26489 16.8272Z" fill="#187059"/>
<path d="M8.35779 16.9114H9.16306C9.16306 16.9114 9.24049 16.9675 9.28695 16.9956H8.48168C8.43522 16.9675 8.38876 16.9394 8.35779 16.9114Z" fill="#187059"/>
<path d="M8.48938 16.9955H9.29465C9.34885 17.0236 9.41079 17.0587 9.47274 17.0867H8.66747C8.60552 17.0587 8.54358 17.0236 8.48938 16.9955Z" fill="#187059"/>
<path d="M8.66748 17.0867H9.47275C9.55792 17.1288 9.65084 17.1639 9.7515 17.199H8.94623C8.84557 17.1639 8.75265 17.1218 8.66748 17.0867Z" fill="#187059"/>
<path d="M8.94629 17.199H9.75156C9.89093 17.2481 10.0458 17.2972 10.2161 17.3463H9.41087C9.24052 17.2972 9.08566 17.2481 8.94629 17.199Z" fill="#187059"/>
<path d="M9.41077 17.3463H10.216C10.4638 17.4165 10.7426 17.4796 11.0523 17.5427H10.247C9.93729 17.4866 9.65854 17.4165 9.41077 17.3463Z" fill="#187059"/>
<path d="M10.2548 17.5427H11.06C11.5401 17.6339 12.0821 17.7111 12.6706 17.7812H11.8653C11.2691 17.7181 10.7271 17.6339 10.2548 17.5427Z" fill="#187059"/>
<path d="M11.8654 17.7812H12.6706C13.1352 17.8304 13.6385 17.8724 14.1573 17.9075H13.352C12.8255 17.8795 12.3299 17.8374 11.8654 17.7812Z" fill="#187059"/>
</g>
<path d="M14.1572 14.5262H13.3519V15.2207H14.1572V14.5262Z" fill="#187059"/>
<path d="M6.62329 16.9114C6.62329 15.3606 10.2314 14.7121 13.3954 14.5148V15.2126C10.3405 15.3959 8.13513 15.9316 8.13513 16.559C8.13513 17.1863 10.3483 17.7291 13.3954 17.9053V19.308C10.2314 19.1107 6.62329 18.4622 6.62329 16.9114Z" fill="white"/>
<mask id="mask1_1_15475" style="mask-type:luminance" maskUnits="userSpaceOnUse" x="13" y="17" width="3" height="1">
<path d="M13.3519 17.9005H14.1572C14.4669 17.9145 14.7921 17.9286 15.1096 17.9426H14.3043C13.9791 17.9286 13.6616 17.9145 13.3519 17.9005Z" fill="white"/>
</mask>
<g mask="url(#mask1_1_15475)">
<path d="M13.3519 17.9005H14.1572C14.4669 17.9145 14.7921 17.9286 15.1096 17.9426H14.3043C13.9791 17.9286 13.6616 17.9145 13.3519 17.9005Z" fill="#187059"/>
</g>
<mask id="mask2_1_15475" style="mask-type:luminance" maskUnits="userSpaceOnUse" x="14" y="17" width="3" height="1">
<path d="M14.5676 17.9496H15.3729C15.7058 17.9637 16.0543 17.9707 16.4105 17.9707H15.6052C15.249 17.9707 14.9083 17.9707 14.5676 17.9496Z" fill="white"/>
</mask>
<g mask="url(#mask2_1_15475)">
<path d="M14.5676 17.9496H15.3729C15.5123 17.9496 15.6516 17.9567 15.7988 17.9637H14.9935C14.8464 17.9637 14.707 17.9567 14.5676 17.9496Z" fill="#187059"/>
</g>
<path d="M18.6482 19.2966H17.8429V24.9789H18.6482V19.2966Z" fill="#187059"/>
<path d="M17.8429 17.9005V24.9859H13.3519V17.9075C13.6616 17.9216 13.9869 17.9356 14.3043 17.9496C14.3895 17.9496 14.4747 17.9496 14.5598 17.9496C14.8928 17.9636 15.2412 17.9707 15.5974 17.9707C15.9536 17.9707 16.2943 17.9707 16.635 17.9496C16.7124 17.9496 16.8053 17.9496 16.8827 17.9496C17.2079 17.9356 17.5254 17.9216 17.8351 17.9075L17.8429 17.9005Z" fill="white"/>
<path d="M18.6482 17.9005H17.8429V19.3036H18.6482V17.9005Z" fill="#187059"/>
<mask id="mask3_1_15475" style="mask-type:luminance" maskUnits="userSpaceOnUse" x="15" y="16" width="4" height="1">
<path d="M17.8428 16.4905H18.6481C17.9667 16.5326 17.2234 16.5606 16.4104 16.5606H15.6051C16.4181 16.5606 17.1692 16.5326 17.8428 16.4905Z" fill="white"/>
</mask>
<g mask="url(#mask3_1_15475)">
<path d="M17.8428 16.4905H18.6481C17.9667 16.5326 17.2234 16.5606 16.4104 16.5606H15.6051C16.4181 16.5606 17.1692 16.5326 17.8428 16.4905Z" fill="#187059"/>
</g>
<path d="M18.6482 15.2207H17.8429V16.4905H18.6482V15.2207Z" fill="#187059"/>
<path d="M18.6482 14.5262H17.8429V15.2207H18.6482V14.5262Z" fill="#187059"/>
<path d="M18.6482 12.3515H17.8429V14.5262H18.6482V12.3515Z" fill="#187059"/>
<path d="M17.8428 8.84387V16.4905C17.1614 16.5326 16.4181 16.5606 15.6051 16.5606C14.7921 16.5606 14.0333 16.5326 13.3596 16.4905V8.84387H17.8505H17.8428Z" fill="white"/>
<path d="M18.6482 8.84387H17.8429V12.3515H18.6482V8.84387Z" fill="#187059"/>
<path d="M17.8429 14.5262C20.9865 14.7226 24.5715 15.368 24.5715 16.9114C24.5715 18.4547 20.9865 19.1001 17.8429 19.2965V17.9005C20.8781 17.7181 23.0771 17.185 23.0771 16.5606C23.0771 15.9362 20.8704 15.4031 17.8429 15.2207V14.5262Z" fill="white"/>
<mask id="mask4_1_15475" style="mask-type:luminance" maskUnits="userSpaceOnUse" x="17" y="14" width="9" height="6">
<path d="M17.8429 14.5262H18.6482C21.7918 14.7226 25.3768 15.368 25.3768 16.9114C25.3768 18.4547 21.7918 19.1001 18.6482 19.2965H17.8429C20.9865 19.1001 24.5715 18.4547 24.5715 16.9114C24.5715 15.368 20.9865 14.7226 17.8429 14.5262Z" fill="white"/>
</mask>
<g mask="url(#mask4_1_15475)">
<path d="M17.8429 14.5262H18.6482C19.136 14.5542 19.6393 14.5963 20.1348 14.6525H19.3295C18.834 14.5963 18.3307 14.5542 17.8429 14.5262Z" fill="#187059"/>
<path d="M19.3296 14.6525H20.1349C20.762 14.7226 21.3892 14.8068 21.9699 14.9261H21.1647C20.5762 14.8138 19.9568 14.7226 19.3296 14.6525Z" fill="#187059"/>
<path d="M21.1724 14.926H21.9776C22.3493 14.9962 22.7132 15.0804 23.0462 15.1716H22.2409C21.9079 15.0804 21.5518 14.9962 21.1724 14.926Z" fill="#187059"/>
<path d="M22.241 15.1716H23.0462C23.2863 15.2347 23.5108 15.3119 23.7199 15.389H22.9146C22.7055 15.3119 22.481 15.2417 22.241 15.1716Z" fill="#187059"/>
<path d="M22.9146 15.389H23.7198C23.8824 15.4522 24.0373 15.5153 24.1844 15.5784H23.3791C23.232 15.5083 23.0772 15.4452 22.9146 15.389Z" fill="#187059"/>
<path d="M23.3713 15.5785H24.1766C24.2928 15.6346 24.4089 15.6907 24.5096 15.7539H23.7043C23.6036 15.6907 23.4875 15.6346 23.3713 15.5785Z" fill="#187059"/>
<path d="M23.712 15.7538H24.5173C24.6102 15.81 24.6954 15.8661 24.7728 15.9222H23.9676C23.8901 15.8661 23.805 15.81 23.712 15.7538Z" fill="#187059"/>
<path d="M23.9675 15.9222H24.7728C24.858 15.9854 24.9277 16.0415 24.9973 16.1117H24.1921C24.1224 16.0485 24.0527 15.9854 23.9675 15.9222Z" fill="#187059"/>
<path d="M24.1921 16.1046H24.9974C25.1678 16.273 25.2916 16.4554 25.3458 16.6588H24.5406C24.4864 16.4554 24.3702 16.273 24.1921 16.1046Z" fill="#187059"/>
<path d="M24.5405 16.6588H25.3458C25.3613 16.7009 25.369 16.75 25.369 16.7921H24.5638C24.5638 16.743 24.5483 16.7009 24.5405 16.6588Z" fill="#187059"/>
<path d="M24.5715 16.7921H25.3768C25.3768 16.8342 25.3768 16.8693 25.3768 16.9114H24.5715C24.5715 16.8693 24.5715 16.8342 24.5715 16.7921Z" fill="#187059"/>
<path d="M24.5793 16.9184H25.3846C25.3846 16.9184 25.3846 16.9815 25.3846 17.0096H24.5793C24.5793 17.0096 24.5793 16.9465 24.5793 16.9184Z" fill="#187059"/>
<path d="M24.5715 17.0096H25.3768C25.3768 17.0096 25.3768 17.0727 25.3613 17.1008H24.556C24.556 17.1008 24.5638 17.0376 24.5715 17.0096Z" fill="#187059"/>
<path d="M24.5561 17.1008H25.3613C25.3613 17.1008 25.3459 17.1569 25.3381 17.192H24.5328C24.5328 17.192 24.5483 17.1358 24.5561 17.1008Z" fill="#187059"/>
<path d="M24.5328 17.192H25.3381C25.3381 17.192 25.3226 17.2481 25.3071 17.2761H24.5018C24.5018 17.2761 24.5251 17.22 24.5328 17.192Z" fill="#187059"/>
<path d="M24.5018 17.2761H25.3071C25.3071 17.2761 25.2839 17.3322 25.2684 17.3603H24.4631C24.4631 17.3603 24.4941 17.3042 24.5018 17.2761Z" fill="#187059"/>
<path d="M24.4632 17.3604H25.2685C25.2685 17.3604 25.2297 17.4305 25.2065 17.4656H24.4012C24.4012 17.4656 24.44 17.3954 24.4632 17.3604Z" fill="#187059"/>
<path d="M24.409 17.4656H25.2142C25.191 17.5007 25.1678 17.5357 25.1368 17.5778H24.3315C24.3625 17.5427 24.3857 17.5077 24.409 17.4656Z" fill="#187059"/>
<path d="M24.3238 17.5708H25.1291C25.0904 17.6199 25.0439 17.669 24.9897 17.7181H24.1844C24.2386 17.669 24.2851 17.6199 24.3238 17.5708Z" fill="#187059"/>
<path d="M24.1921 17.7251H24.9974C23.9908 18.6932 21.1801 19.1422 18.6559 19.2965H17.8506C20.3748 19.1352 23.1855 18.6932 24.1921 17.7251Z" fill="#187059"/>
</g>
<path d="M23.1391 8.84387H22.3339V12.3515H23.1391V8.84387Z" fill="#187059"/>
<path d="M22.3338 8.84387H17.8429V12.3515H22.3338V8.84387Z" fill="white"/>
</g>
<defs>
<filter id="filter0_i_1_15475" x="2.18188" y="2.18182" width="43.6364" height="43.6364" filterUnits="userSpaceOnUse" color-interpolation-filters="sRGB">
<feFlood flood-opacity="0" result="BackgroundImageFix"/>
<feBlend mode="normal" in="SourceGraphic" in2="BackgroundImageFix" result="shape"/>
<feColorMatrix in="SourceAlpha" type="matrix" values="0 0 0 0 0 0 0 0 0 0 0 0 0 0 0 0 0 0 127 0" result="hardAlpha"/>
<feOffset dx="16" dy="16"/>
<feGaussianBlur stdDeviation="8"/>
<feComposite in2="hardAlpha" operator="arithmetic" k2="-1" k3="1"/>
<feColorMatrix type="matrix" values="0 0 0 0 0.0416667 0 0 0 0 0.0416667 0 0 0 0 0.0416667 0 0 0 0.5 0"/>
<feBlend mode="normal" in2="shape" result="effect1_innerShadow_1_15475"/>
</filter>
<filter id="filter1_i_1_15475" x="1.81543" y="2.31543" width="27.8691" height="27.8692" filterUnits="userSpaceOnUse" color-interpolation-filters="sRGB">
<feFlood flood-opacity="0" result="BackgroundImageFix"/>
<feBlend mode="normal" in="SourceGraphic" in2="BackgroundImageFix" result="shape"/>
<feColorMatrix in="SourceAlpha" type="matrix" values="0 0 0 0 0 0 0 0 0 0 0 0 0 0 0 0 0 0 127 0" result="hardAlpha"/>
<feOffset dx="-0.5" dy="0.5"/>
<feGaussianBlur stdDeviation="1"/>
<feComposite in2="hardAlpha" operator="arithmetic" k2="-1" k3="1"/>
<feColorMatrix type="matrix" values="0 0 0 0 0.0416667 0 0 0 0 0.0416667 0 0 0 0 0.0416667 0 0 0 0.5 0"/>
<feBlend mode="normal" in2="shape" result="effect1_innerShadow_1_15475"/>
</filter>
<linearGradient id="paint0_linear_1_15475" x1="16" y1="0" x2="16" y2="32" gradientUnits="userSpaceOnUse">
<stop stop-color="#EAEAEA"/>
<stop offset="1" stop-color="#8A8A8A"/>
</linearGradient>
<linearGradient id="paint1_linear_1_15475" x1="29.1308" y1="6.58228" x2="14.8861" y2="32" gradientUnits="userSpaceOnUse">
<stop stop-color="#3FCEB2"/>
<stop offset="0.28" stop-color="#138D72"/>
<stop offset="0.665" stop-color="#169578"/>
<stop offset="0.995" stop-color="#3FCEB2"/>
</linearGradient>
<linearGradient id="paint2_linear_1_15475" x1="28.3163" y1="5.39535" x2="3.90698" y2="26.5302" gradientUnits="userSpaceOnUse">
<stop stop-color="#6DEAC8"/>
<stop offset="0.41" stop-color="#0E7764"/>
<stop offset="1" stop-color="#6AFAD3"/>
</linearGradient>
<linearGradient id="paint3_linear_1_15475" x1="16" y1="3.28723" x2="16" y2="28.7127" gradientUnits="userSpaceOnUse">
<stop stop-color="#E6E6E6"/>
<stop offset="1" stop-color="#828584"/>
</linearGradient>
<linearGradient id="paint4_linear_1_15475" x1="16" y1="3.28731" x2="16" y2="28.7128" gradientUnits="userSpaceOnUse">
<stop stop-color="#A9B0AF"/>
<stop offset="1" stop-color="#636363"/>
</linearGradient>
<linearGradient id="paint5_linear_1_15475" x1="16" y1="2.56543" x2="16" y2="29.4346" gradientUnits="userSpaceOnUse">
<stop stop-color="#1BA482"/>
<stop offset="1" stop-color="#1EAC89"/>
</linearGradient>
<linearGradient id="paint6_linear_1_15475" x1="16" y1="2.56543" x2="16" y2="29.4346" gradientUnits="userSpaceOnUse">
<stop stop-color="#145B4A"/>
<stop offset="1" stop-color="#178C6F" stop-opacity="0.2"/>
</linearGradient>
<clipPath id="clip0_1_15475">
<rect width="18.7535" height="16.135" fill="white" transform="translate(6.62329 8.84387)"/>
</clipPath>
</defs>
</svg>
