<svg width="20" height="20" viewBox="0 0 20 20" fill="none" xmlns="http://www.w3.org/2000/svg">
<path d="M19.115 11.2451C18.8818 11.2451 18.6582 11.3377 18.4933 11.5026C18.3284 11.6674 18.2358 11.8911 18.2358 12.1242V15.6633C18.235 16.3469 17.9631 17.0022 17.4798 17.4855C16.9964 17.9689 16.3411 18.2407 15.6576 18.2415H5.58656C4.90302 18.2407 4.24769 17.9689 3.76436 17.4855C3.28102 17.0022 3.00914 16.3469 3.00836 15.6633V5.5923C3.00914 4.90876 3.28102 4.25343 3.76436 3.77009C4.24769 3.28675 4.90302 3.01488 5.58656 3.0141H9.12563C9.3588 3.0141 9.58243 2.92147 9.74731 2.75659C9.91218 2.59171 10.0048 2.36809 10.0048 2.13492C10.0048 1.90175 9.91218 1.67812 9.74731 1.51324C9.58243 1.34837 9.3588 1.25574 9.12563 1.25574H5.58656C4.43685 1.25709 3.33462 1.71442 2.52165 2.52739C1.70868 3.34035 1.25136 4.44259 1.25 5.5923V15.6633C1.25136 16.813 1.70868 17.9153 2.52165 18.7282C3.33462 19.5412 4.43685 19.9985 5.58656 19.9999H15.6576C16.8073 19.9985 17.9095 19.5412 18.7225 18.7282C19.5355 17.9153 19.9928 16.813 19.9941 15.6633V12.1242C19.9941 11.8911 19.9015 11.6674 19.7366 11.5026C19.5718 11.3377 19.3481 11.2451 19.115 11.2451Z" fill="white" fill-opacity="0.6"/>
<path d="M19.0959 1.25H13.6303C13.4001 1.24996 13.1791 1.34022 13.0147 1.50139C12.8503 1.66256 12.7557 1.88179 12.7511 2.11196C12.742 2.6054 13.157 3.00836 13.6501 3.00836H16.9958L9.99381 10.0125C9.82895 10.1774 9.73633 10.401 9.73633 10.6342C9.73633 10.8673 9.82895 11.0909 9.99381 11.2558C10.1587 11.4207 10.3823 11.5133 10.6155 11.5133C10.8486 11.5133 11.0722 11.4207 11.2371 11.2558L18.2413 4.25387V7.61161C18.2413 7.84478 18.3339 8.0684 18.4988 8.23328C18.6636 8.39816 18.8873 8.49079 19.1204 8.49079C19.3536 8.49079 19.5772 8.39816 19.7421 8.23328C19.907 8.0684 19.9996 7.84478 19.9996 7.61161V2.15336C19.9996 2.0347 19.9762 1.9172 19.9308 1.80757C19.8854 1.69795 19.8188 1.59835 19.7349 1.51446C19.651 1.43057 19.5514 1.36404 19.4417 1.31866C19.3321 1.27328 19.2146 1.24995 19.0959 1.25Z" fill="white" fill-opacity="0.6"/>
</svg>
