<svg width="40" height="40" viewBox="0 0 40 40" fill="none" xmlns="http://www.w3.org/2000/svg">
<g clip-path="url(#clip0_95_4708)">
<path d="M37.1668 16.4098V23.5903C37.1668 23.9547 36.8714 24.25 36.5071 24.25C36.1099 24.25 35.8335 23.9406 35.8335 23.5903V16.4098C35.8335 16.0453 36.1289 15.75 36.4932 15.75C36.8904 15.75 37.1668 16.0594 37.1668 16.4098Z" fill="white"/>
<path d="M4.16683 16.4098V23.5903C4.16683 23.9547 3.87141 24.25 3.50708 24.25C3.10991 24.25 2.8335 23.9406 2.8335 23.5903V16.4098C2.8335 16.0453 3.12891 15.75 3.49325 15.75C3.89041 15.75 4.16683 16.0594 4.16683 16.4098Z" fill="white"/>
<path d="M15.6853 5.91242L8.42875 9.68734C8.08333 9.86701 7.65783 9.71017 7.51308 9.34867C7.3735 9.00009 7.52767 8.65359 7.81475 8.50426L15.0713 4.72934C15.4167 4.54967 15.8422 4.70651 15.987 5.06801C16.1266 5.41651 15.9724 5.76309 15.6853 5.91242Z" fill="white"/>
<path d="M15.9924 34.9195C15.8324 35.3144 15.4021 35.4426 15.0716 35.2707L7.81503 31.4958C7.51353 31.3389 7.3807 30.9789 7.50828 30.6639C7.66828 30.269 8.09853 30.1408 8.42903 30.3127L15.6856 34.0876C15.9872 34.2444 16.12 34.6045 15.9924 34.9195Z" fill="white"/>
<path d="M32.4924 9.33615C32.3324 9.73099 31.9022 9.85924 31.5716 9.68732L24.315 5.9124C24.0135 5.75557 23.8807 5.39549 24.0083 5.08049C24.1683 4.68565 24.5985 4.5574 24.929 4.72932L32.1856 8.50424C32.4872 8.66107 32.62 9.02115 32.4924 9.33615Z" fill="white"/>
<path d="M32.1853 31.4957L24.9287 35.2706C24.5833 35.4503 24.1578 35.2935 24.0131 34.932C23.8735 34.5834 24.0277 34.2369 24.3147 34.0876L31.5713 30.3127C31.9167 30.133 32.3422 30.2898 32.487 30.6513C32.6266 30.9998 32.4724 31.3464 32.1853 31.4957Z" fill="white"/>
<path d="M20.0068 7.16669C20.3713 7.16669 20.6668 7.46219 20.6668 7.82669V8.41669C20.6668 9.29902 19.3335 9.29877 19.3335 8.41669V7.82669C19.3335 7.47894 19.6072 7.16669 20.0068 7.16669Z" fill="white"/>
<path d="M20.6668 31.5833V32.1733C20.6668 32.5378 20.3713 32.8333 20.0068 32.8333C19.6079 32.8333 19.3335 32.5217 19.3335 32.1733V31.5833C19.3335 30.701 20.6668 30.7013 20.6668 31.5833Z" fill="white"/>
<path d="M9.27429 15.2575L7.81463 14.493C7.51446 14.3358 7.38196 13.9768 7.50904 13.6626C7.66929 13.2665 8.10079 13.1378 8.43188 13.3112L9.89263 14.0758C10.6762 14.4856 10.0535 15.667 9.27429 15.2575Z" fill="white"/>
<path d="M32.4915 13.6626C32.6186 13.9768 32.4861 14.3358 32.1859 14.493L30.7262 15.2575C29.9509 15.6649 29.3191 14.4884 30.1079 14.0759L31.5686 13.3112C31.8992 13.1382 32.331 13.2659 32.4915 13.6626Z" fill="white"/>
<path d="M9.89289 25.9242L8.43214 26.6888C8.08614 26.87 7.65931 26.7126 7.51431 26.3499C7.37547 26.0027 7.52847 25.657 7.81489 25.507L9.27456 24.7425C10.0555 24.333 10.6755 25.5149 9.89289 25.9242Z" fill="white"/>
<path d="M32.4913 26.3374C32.3311 26.7335 31.8996 26.8622 31.5685 26.6888L30.1077 25.9242C29.327 25.5159 29.9439 24.3324 30.7261 24.7425L32.1857 25.507C32.486 25.6643 32.6184 26.0233 32.4913 26.3374Z" fill="white"/>
<path d="M20.9168 34.1667H19.0835C17.9807 34.1667 17.0835 35.0639 17.0835 36.1667V38C17.0835 39.1028 17.9807 40 19.0835 40H20.9168C22.0197 40 22.9168 39.1028 22.9168 38V36.1667C22.9168 35.0639 22.0197 34.1667 20.9168 34.1667Z" fill="white"/>
<path d="M20.9168 0H19.0835C17.9807 0 17.0835 0.89725 17.0835 2V3.83333C17.0835 4.93608 17.9807 5.83333 19.0835 5.83333H20.9168C22.0197 5.83333 22.9168 4.93608 22.9168 3.83333V2C22.9168 0.89725 22.0197 0 20.9168 0Z" fill="white"/>
<path d="M4.41683 25.5833H2.5835C1.48066 25.5833 0.583496 26.4806 0.583496 27.5833V29.4166C0.583496 30.5194 1.48066 31.4166 2.5835 31.4166H4.41683C5.51966 31.4166 6.41683 30.5194 6.41683 29.4166V27.5833C6.41683 26.4806 5.51966 25.5833 4.41683 25.5833Z" fill="white"/>
<path d="M37.4168 8.58331H35.5835C34.4807 8.58331 33.5835 9.48056 33.5835 10.5833V12.4166C33.5835 13.5194 34.4807 14.4166 35.5835 14.4166H37.4168C38.5197 14.4166 39.4168 13.5194 39.4168 12.4166V10.5833C39.4168 9.48056 38.5197 8.58331 37.4168 8.58331Z" fill="white"/>
<path d="M37.4168 25.5833H35.5835C34.4807 25.5833 33.5835 26.4806 33.5835 27.5833V29.4166C33.5835 30.5194 34.4807 31.4166 35.5835 31.4166H37.4168C38.5197 31.4166 39.4168 30.5194 39.4168 29.4166V27.5833C39.4168 26.4806 38.5197 25.5833 37.4168 25.5833Z" fill="white"/>
<path d="M4.41683 8.58331H2.5835C1.48066 8.58331 0.583496 9.48056 0.583496 10.5833V12.4166C0.583496 13.5194 1.48066 14.4166 2.5835 14.4166H4.41683C5.51966 14.4166 6.41683 13.5194 6.41683 12.4166V10.5833C6.41683 9.48056 5.51966 8.58331 4.41683 8.58331Z" fill="white"/>
<path d="M19.1596 19.9681L12.3262 16.2478C12.1042 16.1269 11.8335 16.2876 11.8335 16.5405V24.5C11.8335 24.7442 11.967 24.9688 12.1814 25.0855L18.8408 28.7112C19.0629 28.8321 19.3336 28.6714 19.3336 28.4184V20.2609C19.3335 20.1388 19.2667 20.0264 19.1596 19.9681Z" fill="white"/>
<path d="M20.1598 18.8208L26.9627 15.117C27.1946 14.9908 27.1946 14.6578 26.9627 14.5315L20.3192 10.9145C20.1204 10.8063 19.8804 10.8063 19.6817 10.9145L13.0382 14.5315C12.8063 14.6578 12.8063 14.9908 13.0382 15.117L19.8411 18.8208C19.9404 18.8749 20.0604 18.8749 20.1598 18.8208Z" fill="white"/>
<path d="M20.667 20.2609V28.4184C20.667 28.6714 20.9376 28.8321 21.1597 28.7112L27.8192 25.0855C28.0335 24.9688 28.167 24.7442 28.167 24.5V16.5405C28.167 16.2876 27.8964 16.1269 27.6742 16.2478L20.8409 19.9681C20.7337 20.0264 20.667 20.1388 20.667 20.2609Z" fill="white"/>
</g>
<defs>
<clipPath id="clip0_95_4708">
<rect width="40" height="40" fill="white"/>
</clipPath>
</defs>
</svg>
