<svg width="40" height="40" viewBox="0 0 40 40" fill="none" xmlns="http://www.w3.org/2000/svg">
<path d="M21.3769 26.8856L15.8688 32.3939C15.8688 32.3939 15.8688 32.394 15.8686 32.394C15.8686 32.394 15.8686 32.3941 15.8685 32.3941C13.5907 34.672 9.88425 34.6722 7.60619 32.3941C6.50261 31.2905 5.89499 29.8233 5.89499 28.2628C5.89499 26.7025 6.50261 25.2355 7.6058 24.1319C7.60593 24.1318 7.60606 24.1317 7.60619 24.1315L13.1144 18.6232C13.8748 17.8627 13.8748 16.6295 13.1142 15.8691C12.3538 15.1087 11.1206 15.1087 10.3601 15.8691L4.85191 21.3774C4.85153 21.3778 4.85114 21.3783 4.85075 21.3787C3.01244 23.2176 2 25.6625 2 28.2628C2 30.8638 3.01283 33.3091 4.85204 35.1483C6.75046 37.0466 9.24391 37.9958 11.7375 37.9958C14.2311 37.9958 16.7246 37.0466 18.6228 35.1483C18.6229 35.1483 18.6229 35.148 18.6229 35.148L24.1311 29.6397C24.8915 28.8793 24.8915 27.6461 24.131 26.8856C23.3707 26.1251 22.1376 26.1251 21.3769 26.8856Z" fill="white"/>
<path d="M37.9998 11.7377C37.9998 9.13676 36.9868 6.69149 35.1476 4.85227C31.3509 1.05569 25.1733 1.05582 21.3768 4.85227C21.3767 4.85253 21.3764 4.85266 21.3763 4.85292L15.8683 10.3608C15.1077 11.1213 15.1077 12.3545 15.8683 13.115C16.2487 13.4954 16.747 13.6855 17.2454 13.6855C17.7437 13.6855 18.2423 13.4953 18.6224 13.115L24.1305 7.60707C24.1306 7.60681 24.1309 7.60668 24.1311 7.60642C26.4089 5.32863 30.1154 5.3285 32.3934 7.60642C33.4969 8.71 34.1048 10.1772 34.1048 11.7377C34.1048 13.298 33.4971 14.765 32.3938 15.8686L32.3934 15.869L26.8853 21.3773C26.1248 22.1377 26.1248 23.3709 26.8854 24.1315C27.2657 24.5117 27.7641 24.7019 28.2624 24.7019C28.7608 24.7019 29.2593 24.5117 29.6395 24.1315L35.1477 18.6232C35.1481 18.6228 35.1485 18.6222 35.1489 18.6219C36.9872 16.7829 37.9998 14.338 37.9998 11.7377Z" fill="white"/>
<path d="M13.1149 26.8854C13.4951 27.2657 13.9936 27.4559 14.4919 27.4559C14.9903 27.4559 15.4887 27.2657 15.869 26.8854L26.8856 15.8688C27.6462 15.1084 27.6462 13.8752 26.8856 13.1146C26.1252 12.3542 24.892 12.3542 24.1315 13.1146L13.1149 24.1311C12.3543 24.8918 12.3543 26.125 13.1149 26.8854Z" fill="white"/>
</svg>
