<svg width="20" height="20" viewBox="0 0 20 20" fill="none" xmlns="http://www.w3.org/2000/svg">
<g clip-path="url(#clip0_110_1902)">
<path d="M7.30648 0.834167C6.4124 0.834167 5.63037 1.35615 5.24837 2.10858C5.00917 2.51186 5.14981 3.03245 5.55925 3.26093C5.96037 3.4847 6.46707 3.34236 6.69206 2.94192C6.76941 2.67662 7.00649 2.49839 7.30648 2.49839H16.8597C17.2286 2.49839 17.4993 2.76917 17.4993 3.13804V12.6945C17.4993 12.9835 17.3328 13.2104 17.0835 13.2959C16.683 13.5209 16.5407 14.0284 16.7645 14.4295C16.993 14.839 17.5135 14.9796 17.9168 14.7404C18.6564 14.3547 19.1668 13.5784 19.1668 12.6945V3.13804C19.1668 1.87467 18.1231 0.834167 16.8597 0.834167H7.30648ZM3.14063 5.00246C1.87725 5.00246 0.833496 6.04215 0.833496 7.30552V16.862C0.833496 18.1254 1.87725 19.1659 3.14063 19.1659H12.6938C13.9572 19.1659 15.001 18.1254 15.001 16.862V7.30552C15.001 6.04215 13.9572 5.00246 12.6938 5.00246H3.14063ZM3.14063 6.66587H12.6938C13.0627 6.66587 13.3335 6.93665 13.3335 7.30552V16.862C13.3335 17.2309 13.0627 17.5025 12.6938 17.5025H3.14063C2.77176 17.5025 2.50098 17.2309 2.50098 16.862V7.30552C2.50098 6.93665 2.77176 6.66587 3.14063 6.66587Z" fill="white" fill-opacity="0.6"/>
</g>
<defs>
<clipPath id="clip0_110_1902">
<rect width="20" height="20" fill="white"/>
</clipPath>
</defs>
</svg>
